<?xml version="1.0" encoding="UTF-8"?>
<!DOCTYPE svg PUBLIC "-//W3C//DTD SVG 1.1//EN" "http://www.w3.org/Graphics/SVG/1.1/DTD/svg11.dtd">
<svg xmlns="http://www.w3.org/2000/svg" version="1.1" width="720px" height="320px" style="shape-rendering:geometricPrecision; text-rendering:geometricPrecision; image-rendering:optimizeQuality; fill-rule:evenodd; clip-rule:evenodd" xmlns:xlink="http://www.w3.org/1999/xlink">
<g><path style="opacity:0.859" fill="#080808" d="M 589.5,199.5 C 588.508,199.328 587.842,199.662 587.5,200.5C 585.447,200.402 583.78,201.069 582.5,202.5C 572.382,205.762 562.382,209.429 552.5,213.5C 552.101,216.422 551.934,219.422 552,222.5C 545.667,228.5 539.333,234.5 533,240.5C 529,247.833 525,255.167 521,262.5C 514.636,269.199 507.969,275.532 501,281.5C 497.154,280.32 494.654,277.82 493.5,274C 501.363,255.775 509.363,237.608 517.5,219.5C 515.994,218.253 514.494,218.253 513,219.5C 511.667,222.833 510.333,226.167 509,229.5C 506,231.167 503,232.833 500,234.5C 500.135,237.938 498.968,240.772 496.5,243C 483.5,253.333 470.5,263.667 457.5,274C 450.292,275.456 443.126,275.622 436,274.5C 431.806,279.06 427.972,283.894 424.5,289C 418.04,291.648 411.54,294.148 405,296.5C 403.086,295.586 401.919,294.086 401.5,292C 417.919,263.25 434.752,234.75 452,206.5C 455.438,191.142 458.938,175.808 462.5,160.5C 461.675,159.614 460.675,159.281 459.5,159.5C 457.11,173.506 454.61,187.506 452,201.5C 446.957,209.087 441.79,216.587 436.5,224C 433.692,224.92 431.525,224.087 430,221.5C 427.588,216.341 424.921,211.341 422,206.5C 421.844,198.426 422.677,190.426 424.5,182.5C 424.204,180.015 422.871,178.348 420.5,177.5C 419.366,175.538 419.366,173.538 420.5,171.5C 420.167,170.833 419.833,170.167 419.5,169.5C 406.876,206.54 394.542,243.706 382.5,281C 379.653,281.944 377.153,281.444 375,279.5C 374.667,261.5 374.333,243.5 374,225.5C 359.253,235.457 344.419,245.291 329.5,255C 327.833,255.667 326.167,255.667 324.5,255C 317,250.833 309.5,246.667 302,242.5C 298.633,246.203 294.966,249.536 291,252.5C 290.667,258.167 290.333,263.833 290,269.5C 287.089,276.222 282.922,281.889 277.5,286.5C 275.866,286.032 274.7,285.032 274,283.5C 272.552,267.182 271.386,250.848 270.5,234.5C 269.167,234.5 267.833,234.5 266.5,234.5C 266.666,241.508 266.5,248.508 266,255.5C 263.333,263.5 260.667,271.5 258,279.5C 256,282.167 254,282.167 252,279.5C 243.522,251.236 235.356,222.903 227.5,194.5C 214.92,193.493 202.42,192.16 190,190.5C 193.303,201.235 197.137,211.901 201.5,222.5C 199.001,231.161 196.501,239.828 194,248.5C 192.386,251.825 190.386,252.158 188,249.5C 185.961,244.737 183.461,240.403 180.5,236.5C 141.915,247.312 103.249,257.478 64.5,267C 62.6751,265.534 62.1751,263.701 63,261.5C 72.3781,248.578 81.8781,235.744 91.5,223C 102.164,221.856 112.831,220.689 123.5,219.5C 120.593,212.276 117.593,205.109 114.5,198C 115.361,195.132 117.028,192.798 119.5,191C 115.898,191.691 112.232,192.524 108.5,193.5C 99.0874,191.307 89.7541,188.807 80.5,186C 77.8333,182 74.5,178.667 70.5,176C 61.1106,174.255 51.7772,172.255 42.5,170C 34.4567,158.08 26.2901,146.246 18,134.5C 15.7333,129.092 17.5666,126.925 23.5,128C 37.8089,131.994 52.1422,135.827 66.5,139.5C 66.5,129.5 66.5,119.5 66.5,109.5C 60.4536,109.427 58.2869,106.427 60,100.5C 60.9025,99.2986 62.0692,98.4652 63.5,98C 90.1667,97.3333 116.833,97.3333 143.5,98C 146.744,102.947 145.744,106.78 140.5,109.5C 143.236,116.208 146.069,122.874 149,129.5C 151.333,131.833 153.667,134.167 156,136.5C 158.779,128.159 161.946,119.993 165.5,112C 157.295,90.8914 149.295,69.5581 141.5,48C 141.862,46.7753 142.362,45.6086 143,44.5C 145.677,42.4857 148.344,40.4857 151,38.5C 152.982,38.9903 154.649,39.9903 156,41.5C 166.627,54.4622 177.627,67.1289 189,79.5C 190.533,85.265 192.366,90.9317 194.5,96.5C 196.078,97.2978 197.744,97.7978 199.5,98C 200.227,99.3988 200.727,100.899 201,102.5C 201.273,100.671 202.107,99.1711 203.5,98C 210.167,97.6667 216.833,97.3333 223.5,97C 222.167,94.6667 222.167,92.3333 223.5,90C 231.214,88.5439 238.214,85.5439 244.5,81C 240.167,80.6667 235.833,80.3333 231.5,80C 228.419,78.688 226.752,76.3546 226.5,73C 227.719,70.7174 227.719,68.384 226.5,66C 226.759,64.7387 227.426,63.7387 228.5,63C 234.5,62.6667 240.5,62.3333 246.5,62C 241.5,61.6667 236.5,61.3333 231.5,61C 228.571,58.0899 227.905,54.7566 229.5,51C 234.5,50.6667 239.5,50.3333 244.5,50C 242.006,47.7564 242.006,45.4231 244.5,43C 253.012,42.439 261.346,43.439 269.5,46C 270.685,47.353 272.019,48.5197 273.5,49.5C 275.708,47.8975 278.041,46.5642 280.5,45.5C 285.201,46.7323 289.534,48.7323 293.5,51.5C 299.142,48.3495 304.642,45.0161 310,41.5C 315.213,45.0461 319.38,49.5461 322.5,55C 322.241,56.2613 321.574,57.2613 320.5,58C 322.134,58.4935 323.801,58.6602 325.5,58.5C 325.745,53.9464 325.412,49.4464 324.5,45C 327.169,38.6726 329.669,32.1726 332,25.5C 332.804,24.1955 333.971,23.5288 335.5,23.5C 346.699,29.1974 357.533,35.5307 368,42.5C 369,41.8333 370,41.1667 371,40.5C 375.862,41.7866 380.695,43.2866 385.5,45C 386.333,45.8333 387.167,46.6667 388,47.5C 387.923,51.2292 388.09,54.8959 388.5,58.5C 392.019,55.1465 395.686,51.9798 399.5,49C 402.015,49.2162 404.349,49.8829 406.5,51C 410.046,47.1182 413.879,43.6182 418,40.5C 421.651,42.4928 425.317,44.4928 429,46.5C 430.574,45.1524 432.407,44.4858 434.5,44.5C 445.146,45.5969 455.813,45.7636 466.5,45C 469.004,40.2262 472.67,39.2262 477.5,42C 482.054,42.9156 484.72,45.5823 485.5,50C 485.016,57.5821 484.183,65.0821 483,72.5C 480.583,73.9985 477.917,74.6651 475,74.5C 469.694,73.7753 464.527,72.7753 459.5,71.5C 459.5,76.5 459.5,81.5 459.5,86.5C 463.833,86.5 468.167,86.5 472.5,86.5C 472.02,83.3148 472.686,80.4815 474.5,78C 475.833,77.3333 477.167,77.3333 478.5,78C 484.499,80.8266 488.499,85.3266 490.5,91.5C 490.514,93.5925 489.848,95.4259 488.5,97C 482.593,98.3608 476.593,98.8608 470.5,98.5C 471.467,102.851 469.8,105.185 465.5,105.5C 465.333,118.171 465.5,130.838 466,143.5C 466.227,140.94 467.56,139.274 470,138.5C 473.515,141.594 477.015,144.594 480.5,147.5C 481.167,147.167 481.833,146.833 482.5,146.5C 483.903,143.125 485.403,139.791 487,136.5C 491.629,132.198 495.129,133.031 497.5,139C 496.006,141.639 495.339,144.472 495.5,147.5C 496.833,147.5 498.167,147.5 499.5,147.5C 499.5,133.5 499.5,119.5 499.5,105.5C 491.654,105.306 489.654,101.806 493.5,95C 504.167,94.3333 514.833,94.3333 525.5,95C 527.478,97.4973 527.978,100.331 527,103.5C 525.89,105.037 524.39,105.703 522.5,105.5C 522.334,109.514 522.501,113.514 523,117.5C 526.786,104.717 535.286,97.2173 548.5,95C 555.244,94.416 561.911,94.416 568.5,95C 571.858,87.2636 575.024,79.4303 578,71.5C 588.229,62.9709 598.729,54.8042 609.5,47C 615.441,45.2551 621.441,45.2551 627.5,47C 628.574,47.7387 629.241,48.7387 629.5,50C 627.384,54.399 624.884,58.5657 622,62.5C 619.015,72.8078 615.181,82.8078 610.5,92.5C 614.796,93.3275 619.129,93.8275 623.5,94C 629.95,105.661 635.45,117.827 640,130.5C 640.5,121.506 640.666,112.506 640.5,103.5C 633.935,104.578 631.768,101.911 634,95.5C 634.5,95 635,94.5 635.5,94C 642.5,93.3333 649.5,93.3333 656.5,94C 659.203,95.8201 660.036,98.3201 659,101.5C 657.237,102.944 655.237,103.944 653,104.5C 652.5,118.163 652.333,131.829 652.5,145.5C 657.757,145.688 659.924,148.355 659,153.5C 658.5,155.333 657.333,156.5 655.5,157C 644.5,157.333 633.5,157.667 622.5,158C 624.688,160.71 626.355,163.71 627.5,167C 626.833,168 626.167,169 625.5,170C 610.228,173.588 594.895,176.921 579.5,180C 585.117,181.052 590.784,181.718 596.5,182C 598.978,183.938 599.145,186.105 597,188.5C 594.49,192.195 591.99,195.862 589.5,199.5 Z M 431.5,53.5 C 433.614,55.7871 436.114,57.4537 439,58.5C 447.356,56.6482 455.856,55.9815 464.5,56.5C 464.5,58.1667 464.5,59.8333 464.5,61.5C 458.666,61.9501 452.999,61.2834 447.5,59.5C 444.56,60.3035 441.893,61.6369 439.5,63.5C 436.349,60.8496 433.349,58.0162 430.5,55C 431.056,54.6174 431.389,54.1174 431.5,53.5 Z M 294.5,71.5 C 296.167,71.5 297.833,71.5 299.5,71.5C 299.5,79.8333 299.5,88.1667 299.5,96.5C 296.813,96.3359 294.146,96.5026 291.5,97C 287.943,99.5808 287.61,102.581 290.5,106C 292.473,106.495 294.473,106.662 296.5,106.5C 296.666,115.506 296.5,124.506 296,133.5C 291.069,122.208 286.236,110.874 281.5,99.5C 289.067,91.6982 293.4,82.3649 294.5,71.5 Z M 318.5,71.5 C 320.833,71.5 323.167,71.5 325.5,71.5C 325.255,80.2075 325.589,88.8742 326.5,97.5C 322.668,97.9444 319.168,99.2777 316,101.5C 316.044,99.7215 316.711,98.0548 318,96.5C 318.5,88.1733 318.666,79.84 318.5,71.5 Z M 387.5,86.5 C 387.334,82.1539 387.501,77.8206 388,73.5C 390.167,76.3333 392.333,79.1667 394.5,82C 392.266,83.7498 389.932,85.2498 387.5,86.5 Z M 424.5,88.5 C 425.695,88.8656 426.361,89.699 426.5,91C 426,92.5 425.5,94 425,95.5C 424.503,93.1902 424.337,90.8568 424.5,88.5 Z M 407.5,91.5 C 408.249,92.531 408.915,93.6976 409.5,95C 406.833,95.6667 404.167,95.6667 401.5,95C 403.727,94.059 405.727,92.8923 407.5,91.5 Z M 252.5,93.5 C 253.404,94.209 253.737,95.209 253.5,96.5C 252.127,96.6567 250.793,96.49 249.5,96C 250.942,95.6232 251.942,94.7899 252.5,93.5 Z M 227.5,98.5 C 231.824,98.9272 236.158,99.2605 240.5,99.5C 239.185,104.836 241.185,107.503 246.5,107.5C 246.5,110.167 246.5,112.833 246.5,115.5C 242.05,115.579 237.717,114.912 233.5,113.5C 231.21,108.591 229.21,103.591 227.5,98.5 Z M 550.5,105.5 C 554.833,105.5 559.167,105.5 563.5,105.5C 559.556,118.499 554.722,131.165 549,143.5C 547.358,132.324 547.025,120.991 548,109.5C 548.662,108.016 549.496,106.683 550.5,105.5 Z M 374.5,106.5 C 375.5,106.5 376.5,106.5 377.5,106.5C 377.832,118.186 377.499,129.852 376.5,141.5C 375.671,136.533 375.171,131.533 375,126.5C 374.626,125.584 374.126,124.75 373.5,124C 371.5,123.667 369.5,123.333 367.5,123C 370.007,122.907 372.174,122.074 374,120.5C 374.499,115.845 374.666,111.179 374.5,106.5 Z M 400.5,106.5 C 408.5,106.5 416.5,106.5 424.5,106.5C 424.5,109.5 424.5,112.5 424.5,115.5C 420.303,115.194 418.303,117.194 418.5,121.5C 412.5,121.5 406.5,121.5 400.5,121.5C 400.5,116.5 400.5,111.5 400.5,106.5 Z M 90.5,109.5 C 99.1731,109.334 107.84,109.5 116.5,110C 117.61,112.737 117.777,115.571 117,118.5C 111.226,116.464 108.393,118.464 108.5,124.5C 102.5,124.5 96.5,124.5 90.5,124.5C 90.5,119.5 90.5,114.5 90.5,109.5 Z M 127.5,109.5 C 130.939,115.315 133.106,121.648 134,128.5C 139.027,139.25 143.861,150.083 148.5,161C 148.167,161.5 147.833,162 147.5,162.5C 141.276,160.361 134.943,158.694 128.5,157.5C 128.284,153.513 128.951,149.68 130.5,146C 128.666,141.575 125.666,140.242 121.5,142C 120.039,144.421 118.706,146.921 117.5,149.5C 108.528,151.24 99.8617,150.24 91.5,146.5C 90.513,143.232 90.1796,139.898 90.5,136.5C 96.5,136.5 102.5,136.5 108.5,136.5C 107.526,141.027 109.359,143.36 114,143.5C 115.763,143.025 117.43,142.358 119,141.5C 119.169,134.809 119.669,128.142 120.5,121.5C 122.861,122.776 125.028,122.442 127,120.5C 127.499,116.848 127.665,113.182 127.5,109.5 Z M 332.5,110.5 C 333.117,110.611 333.617,110.944 334,111.5C 335.137,123.511 336.304,135.511 337.5,147.5C 334.713,147.22 332.547,145.887 331,143.5C 330.333,133.833 330.333,124.167 331,114.5C 331.791,113.255 332.291,111.922 332.5,110.5 Z M 206.5,117.5 C 209.595,124.507 212.095,131.84 214,139.5C 213.57,149.251 215.404,158.584 219.5,167.5C 218.726,168.711 217.893,168.711 217,167.5C 212.692,153.577 208.192,139.744 203.5,126C 204.929,123.31 205.929,120.477 206.5,117.5 Z M 602.5,122.5 C 607.411,131.075 611.244,140.075 614,149.5C 610.217,148.197 606.384,147.197 602.5,146.5C 602.5,138.5 602.5,130.5 602.5,122.5 Z M 312.5,231.5 C 316.393,227.774 319.727,223.607 322.5,219C 322.241,217.739 321.574,216.739 320.5,216C 302.503,215.5 284.503,215.333 266.5,215.5C 266.666,209.158 266.5,202.825 266,196.5C 265.5,195.5 265,194.5 264.5,193.5C 265.018,177.288 265.185,160.955 265,144.5C 263,141.167 261,137.833 259,134.5C 258.333,131.5 258.333,128.5 259,125.5C 263.667,136.167 268.333,146.833 273,157.5C 273.903,158.701 275.069,159.535 276.5,160C 288.167,160.667 299.833,160.667 311.5,160C 312.416,159.626 313.25,159.126 314,158.5C 314.202,156.744 314.702,155.078 315.5,153.5C 322.349,158.449 330.016,160.782 338.5,160.5C 339.863,171.798 341.03,183.131 342,194.5C 343.61,199.331 345.61,203.997 348,208.5C 350.632,211.192 352.966,210.859 355,207.5C 358.727,199.045 362.727,190.712 367,182.5C 368.29,178.27 368.79,173.936 368.5,169.5C 375.445,169.436 382.112,169.436 388.5,169.5C 384,177.167 379.5,184.833 375,192.5C 374.667,199.5 374.333,206.5 374,213.5C 371.96,211.647 369.627,210.314 367,209.5C 348.997,217.252 330.83,224.585 312.5,231.5 Z M 400.5,134.5 C 406.5,134.5 412.5,134.5 418.5,134.5C 418.329,136.993 419.329,138.826 421.5,140C 414.508,140.5 407.508,140.666 400.5,140.5C 400.5,138.5 400.5,136.5 400.5,134.5 Z M 522.5,134.5 C 526.215,145.383 533.548,152.883 544.5,157C 542.205,161.759 540.038,166.592 538,171.5C 534.217,174.316 530.717,177.483 527.5,181C 516.121,181.188 504.787,181.688 493.5,182.5C 489.881,192.632 486.714,202.965 484,213.5C 483.581,214.672 482.915,215.672 482,216.5C 485.532,200.226 489.699,184.059 494.5,168C 493.299,164.79 491.299,162.123 488.5,160C 490.329,159.727 491.829,158.893 493,157.5C 504.424,158.654 515.924,158.82 527.5,158C 529.504,155.159 530.004,151.993 529,148.5C 526.959,147.577 524.792,147.244 522.5,147.5C 522.5,143.167 522.5,138.833 522.5,134.5 Z M 308.5,146.5 C 309.267,147.172 309.934,148.005 310.5,149C 308.939,149.188 308.272,148.355 308.5,146.5 Z M 157.5,184.5 C 158.376,184.369 159.043,184.702 159.5,185.5C 163.833,195.5 168.167,205.5 172.5,215.5C 166.307,217.156 159.974,218.156 153.5,218.5C 152.167,218.167 150.833,217.833 149.5,217.5C 146.667,211.833 143.833,206.167 141,200.5C 140.316,199.216 140.483,198.049 141.5,197C 147.084,193.055 152.417,188.888 157.5,184.5 Z M 184.5,162.5 C 186.847,161.105 189.181,161.272 191.5,163C 189.249,162.793 186.915,162.627 184.5,162.5 Z M 179.5,146.5 C 182.14,147.794 182.14,149.127 179.5,150.5C 178.708,149.3 178.708,147.967 179.5,146.5 Z M 590.5,137.5 C 591.473,139.948 591.806,142.615 591.5,145.5C 589.774,145.815 588.107,145.981 586.5,146C 588.782,143.603 590.116,140.769 590.5,137.5 Z"/></g>
<g><path style="opacity:1" fill="#eeeae6" d="M 376.5,45.5 C 376.158,46.3382 375.492,46.6716 374.5,46.5C 373.511,51.9753 373.178,57.642 373.5,63.5C 369.5,63.5 365.5,63.5 361.5,63.5C 361.5,59.5 361.5,55.5 361.5,51.5C 361.631,50.6236 361.298,49.9569 360.5,49.5C 357.668,48.4195 354.835,47.4195 352,46.5C 351.501,52.1569 351.334,57.8236 351.5,63.5C 347.833,63.5 344.167,63.5 340.5,63.5C 340.5,59.5 340.5,55.5 340.5,51.5C 339.513,48.9142 337.513,47.5809 334.5,47.5C 334.5,47.1667 334.5,46.8333 334.5,46.5C 332.379,46.3253 330.379,46.6586 328.5,47.5C 328.821,45.9519 329.821,45.2852 331.5,45.5C 330.43,38.8739 331.93,32.8739 336,27.5C 345.286,32.6176 354.453,37.951 363.5,43.5C 364.496,49.7985 364.83,56.1318 364.5,62.5C 366.833,62.5 369.167,62.5 371.5,62.5C 371.171,56.4632 371.504,50.4632 372.5,44.5C 373.736,45.2458 375.07,45.5792 376.5,45.5 Z"/></g>
<g><path style="opacity:1" fill="#ff7c13" d="M 334.5,46.5 C 332.898,40.9247 333.564,35.5914 336.5,30.5C 344.963,35.1337 353.296,39.967 361.5,45C 362.517,46.0495 362.684,47.2161 362,48.5C 357.922,46.2895 353.755,45.2895 349.5,45.5C 350.454,51.1045 350.788,56.7711 350.5,62.5C 347.5,62.5 344.5,62.5 341.5,62.5C 341.524,57.7734 341.69,53.1068 342,48.5C 339.699,47.1328 337.199,46.4661 334.5,46.5 Z"/></g>
<g><path style="opacity:1" fill="#0e0e0e" d="M 270.5,82.5 C 269.438,81.4246 269.438,80.4246 270.5,79.5C 273.339,81.4203 276.339,83.0869 279.5,84.5C 280.562,79.2121 281.229,73.8788 281.5,68.5C 275.463,68.1707 269.463,68.5041 263.5,69.5C 264.325,70.3857 265.325,70.719 266.5,70.5C 266.5,78.8333 266.5,87.1667 266.5,95.5C 263.833,95.5 261.167,95.5 258.5,95.5C 258.666,91.4862 258.499,87.4862 258,83.5C 250.589,92.0806 241.422,95.2472 230.5,93C 241.349,91.2515 249.349,85.5848 254.5,76C 247.167,75.6667 239.833,75.3333 232.5,75C 240.827,74.5003 249.16,74.3336 257.5,74.5C 257.5,72.5 257.5,70.5 257.5,68.5C 258.167,67.8333 258.833,67.1667 259.5,66.5C 264.79,65.0148 268.79,61.8482 271.5,57C 264.808,56.1691 258.142,56.3358 251.5,57.5C 253.891,58.9823 256.224,60.6489 258.5,62.5C 257.873,63.4168 257.539,64.4168 257.5,65.5C 256.185,67.5992 254.518,67.9326 252.5,66.5C 252.002,63.1714 251.002,60.0047 249.5,57C 244.177,56.5006 238.844,56.334 233.5,56.5C 241.01,55.8334 248.677,55.1667 256.5,54.5C 254.684,52.1831 252.684,50.0165 250.5,48C 255.867,48.173 261.201,49.0063 266.5,50.5C 266.833,50.8333 267.167,51.1667 267.5,51.5C 266.5,52.3333 265.5,53.1667 264.5,54C 267.972,55.5799 271.638,55.9133 275.5,55C 276.333,54.1667 277.167,53.3333 278,52.5C 280.021,55.2862 281.521,54.9528 282.5,51.5C 286.365,52.2615 289.365,54.2615 291.5,57.5C 298.113,55.1953 304.113,51.8619 309.5,47.5C 311.483,48.982 313.316,50.6487 315,52.5C 315.688,53.3317 315.521,53.9984 314.5,54.5C 306.497,57.9176 298.163,59.9176 289.5,60.5C 290.01,71.1179 287.843,81.1179 283,90.5C 280.989,94.0016 279.656,94.0016 279,90.5C 275.608,94.4494 274.608,93.7827 276,88.5C 274.669,86.0038 272.836,84.0038 270.5,82.5 Z"/></g>
<g><path style="opacity:1" fill="#0e0e0e" d="M 439.5,73.5 C 439.021,75.8445 437.521,77.1778 435,77.5C 433.588,76.3144 432.421,74.981 431.5,73.5C 431.5,72.8333 431.5,72.1667 431.5,71.5C 431.22,68.2735 429.887,65.6068 427.5,63.5C 423.024,65.7175 419.024,68.3841 415.5,71.5C 416.833,72.1667 418.167,72.8333 419.5,73.5C 419.5,80.1667 419.5,86.8333 419.5,93.5C 417.5,93.5 415.5,93.5 413.5,93.5C 413.5,86.8333 413.5,80.1667 413.5,73.5C 407.537,73.1573 401.87,73.9906 396.5,76C 395.313,74.9805 394.313,73.8139 393.5,72.5C 397.135,71.3939 400.802,70.3939 404.5,69.5C 401.649,65.2373 397.649,62.7373 392.5,62C 394.833,59.6667 397.167,57.3333 399.5,55C 400.996,54.4926 402.163,54.9926 403,56.5C 405.002,60.3418 406.502,64.3418 407.5,68.5C 415.222,67.5561 422.056,64.5561 428,59.5C 432.559,63.6457 436.392,68.3124 439.5,73.5 Z"/></g>
<g><path style="opacity:1" fill="#e6e6e6" d="M 273.5,56.5 C 276.167,56.5 278.833,56.5 281.5,56.5C 283.399,64.2667 280.399,67.6001 272.5,66.5C 270.5,66.1667 268.5,65.8333 266.5,65.5C 270.251,64.1488 273.918,62.6488 277.5,61C 275.808,59.6927 274.475,58.1927 273.5,56.5 Z"/></g>
<g><path style="opacity:1" fill="#525252" d="M 276.5,58.5 C 279.004,56.9692 280.337,57.8025 280.5,61C 280.158,63.4922 278.825,64.4922 276.5,64C 279.124,62.0312 279.124,60.1978 276.5,58.5 Z"/></g>
<g><path style="opacity:1" fill="#d6d6d6" d="M 259.5,66.5 C 258.508,66.6716 257.842,66.3382 257.5,65.5C 257.539,64.4168 257.873,63.4168 258.5,62.5C 256.224,60.6489 253.891,58.9823 251.5,57.5C 258.142,56.3358 264.808,56.1691 271.5,57C 268.79,61.8482 264.79,65.0148 259.5,66.5 Z"/></g>
<g><path style="opacity:1" fill="#0a0a0a" d="M 257.5,59.5 C 268.068,57.3827 269.235,59.0494 261,64.5C 260.777,62.1192 259.61,60.4525 257.5,59.5 Z"/></g>
<g><path style="opacity:1" fill="#030303" d="M 454.5,66.5 C 454.175,74.3516 454.508,82.0182 455.5,89.5C 455.833,90.5 456.5,91.1667 457.5,91.5C 453.366,92.4849 449.032,92.8182 444.5,92.5C 443.343,84.0099 443.176,75.3433 444,66.5C 445.085,65.7069 446.252,65.0402 447.5,64.5C 449.618,65.9459 451.951,66.6126 454.5,66.5 Z"/></g>
<g><path style="opacity:1" fill="#f3ecea" d="M 470.5,70.5 C 470.5,70.1667 470.5,69.8333 470.5,69.5C 473.5,69.5 476.5,69.5 479.5,69.5C 479.189,62.9102 479.522,56.4102 480.5,50C 476.542,44.8918 472.876,44.7251 469.5,49.5C 458.48,49.1679 447.48,49.5012 436.5,50.5C 436.624,51.1067 436.957,51.44 437.5,51.5C 438.833,54.1667 440.167,54.1667 441.5,51.5C 450.833,51.5 460.167,51.5 469.5,51.5C 469.5,56.5 469.5,61.5 469.5,66.5C 464.5,66.5 459.5,66.5 454.5,66.5C 451.951,66.6126 449.618,65.9459 447.5,64.5C 446.252,65.0402 445.085,65.7069 444,66.5C 443.176,75.3433 443.343,84.0099 444.5,92.5C 449.64,93.4881 454.974,93.8214 460.5,93.5C 468.833,93.5 477.167,93.5 485.5,93.5C 485.5,93.8333 485.5,94.1667 485.5,94.5C 471.817,94.1675 458.15,94.5008 444.5,95.5C 444.977,96.4776 445.643,97.3109 446.5,98C 453.158,98.4996 459.825,98.6663 466.5,98.5C 466.5,99.5 466.5,100.5 466.5,101.5C 464.833,101.5 463.167,101.5 461.5,101.5C 461.17,118.342 461.503,135.008 462.5,151.5C 464.467,151.739 466.301,151.406 468,150.5C 468.413,147.768 469.08,145.101 470,142.5C 472.128,145.63 474.628,148.463 477.5,151C 480.146,151.497 482.813,151.664 485.5,151.5C 486.293,146.957 487.793,142.624 490,138.5C 491.011,137.663 492.178,137.33 493.5,137.5C 491.985,143.41 490.985,149.41 490.5,155.5C 487.428,155.183 484.428,155.516 481.5,156.5C 484.867,160.079 487.867,163.912 490.5,168C 486.255,183.812 482.089,199.645 478,215.5C 459.667,238.833 441.333,262.167 423,285.5C 417.005,288.426 410.839,290.593 404.5,292C 421.71,264.416 438.544,236.583 455,208.5C 459.028,190.86 462.861,173.193 466.5,155.5C 463.167,155.5 459.833,155.5 456.5,155.5C 453.992,170.882 451.158,186.216 448,201.5C 443.833,207.667 439.667,213.833 435.5,220C 434.551,220.617 433.718,220.451 433,219.5C 429.755,214.175 426.921,208.675 424.5,203C 426.045,195.895 427.212,188.728 428,181.5C 428.374,180.584 428.874,179.75 429.5,179C 433.099,177.691 436.599,176.191 440,174.5C 441.459,168.554 442.126,162.554 442,156.5C 440.936,160.446 440.103,164.446 439.5,168.5C 439.253,169.713 438.586,170.38 437.5,170.5C 437.158,169.662 436.492,169.328 435.5,169.5C 436.832,168.17 437.665,166.503 438,164.5C 439.131,155.485 440.298,146.485 441.5,137.5C 442.947,126.487 444.613,115.487 446.5,104.5C 444.272,99.7112 441.772,95.0445 439,90.5C 438.578,92.4257 437.411,93.4257 435.5,93.5C 435.5,93.1667 435.5,92.8333 435.5,92.5C 438.099,90.0787 438.099,87.5787 435.5,85C 432.672,83.1683 429.672,82.1683 426.5,82C 428.389,84.3818 430.055,86.8818 431.5,89.5C 430.833,90.8333 430.167,92.1667 429.5,93.5C 429.025,87.6665 426.358,82.9998 421.5,79.5C 420.539,77.7354 420.205,75.7354 420.5,73.5C 424.167,73.5 427.833,73.5 431.5,73.5C 432.421,74.981 433.588,76.3144 435,77.5C 437.521,77.1778 439.021,75.8445 439.5,73.5C 439.833,73.5 440.167,73.5 440.5,73.5C 440.5,74.1667 440.5,74.8333 440.5,75.5C 439.351,77.1494 438.018,78.6494 436.5,80C 438.079,82.7372 439.412,85.5705 440.5,88.5C 440.783,89.2891 441.283,89.9558 442,90.5C 442.499,84.8431 442.666,79.1764 442.5,73.5C 442.336,70.8127 442.503,68.146 443,65.5C 443.75,64.8742 444.584,64.3742 445.5,64C 452.72,65.3466 460.054,65.68 467.5,65C 468.464,60.9341 468.797,56.7675 468.5,52.5C 459.827,52.3336 451.16,52.5002 442.5,53C 441.421,53.956 440.255,54.7894 439,55.5C 436.81,53.6116 434.977,51.4449 433.5,49C 445.167,48.6667 456.833,48.3333 468.5,48C 469.805,43.9504 472.138,42.9504 475.5,45C 478.456,45.9618 480.79,47.6284 482.5,50C 482.37,51.0588 481.87,51.8921 481,52.5C 480.501,58.4908 480.334,64.4908 480.5,70.5C 477.167,70.5 473.833,70.5 470.5,70.5 Z"/></g>
<g><path style="opacity:1" fill="#7b7b7b" d="M 469.5,49.5 C 469.5,50.1667 469.5,50.8333 469.5,51.5C 460.167,51.5 450.833,51.5 441.5,51.5C 440.167,50.1667 438.833,50.1667 437.5,51.5C 436.957,51.44 436.624,51.1067 436.5,50.5C 447.48,49.5012 458.48,49.1679 469.5,49.5 Z"/></g>
<g><path style="opacity:1" fill="#171717" d="M 441.5,51.5 C 440.167,54.1667 438.833,54.1667 437.5,51.5C 438.833,50.1667 440.167,50.1667 441.5,51.5 Z"/></g>
<g><path style="opacity:1" fill="#080808" d="M 470.5,69.5 C 469.596,68.791 469.263,67.791 469.5,66.5C 469.5,61.5 469.5,56.5 469.5,51.5C 469.5,50.8333 469.5,50.1667 469.5,49.5C 472.876,44.7251 476.542,44.8918 480.5,50C 479.522,56.4102 479.189,62.9102 479.5,69.5C 476.5,69.5 473.5,69.5 470.5,69.5 Z"/></g>
<g><path style="opacity:1" fill="#a7a7a7" d="M 454.5,66.5 C 459.5,66.5 464.5,66.5 469.5,66.5C 469.263,67.791 469.596,68.791 470.5,69.5C 470.5,69.8333 470.5,70.1667 470.5,70.5C 466.066,68.7627 461.399,68.0961 456.5,68.5C 455.501,74.7424 455.167,81.7424 455.5,89.5C 454.508,82.0182 454.175,74.3516 454.5,66.5 Z"/></g>
<g><path style="opacity:1" fill="#525252" d="M 257.5,65.5 C 257.842,66.3382 258.508,66.6716 259.5,66.5C 258.833,67.1667 258.167,67.8333 257.5,68.5C 249.14,68.8312 240.807,68.4979 232.5,67.5C 239.134,66.5033 245.8,66.17 252.5,66.5C 254.518,67.9326 256.185,67.5992 257.5,65.5 Z"/></g>
<g><path style="opacity:1" fill="#c7c6c6" d="M 328.5,47.5 C 330.379,46.6586 332.379,46.3253 334.5,46.5C 334.5,46.8333 334.5,47.1667 334.5,47.5C 333.167,47.5 331.833,47.5 330.5,47.5C 330.333,62.837 330.5,78.1703 331,93.5C 333.719,94.4438 336.552,94.7771 339.5,94.5C 356.17,94.6666 372.837,94.4999 389.5,94C 396.993,92.2534 403.66,88.9201 409.5,84C 408.183,82.3409 406.517,81.1743 404.5,80.5C 398.824,85.3327 392.824,89.666 386.5,93.5C 386.5,92.8333 386.167,92.5 385.5,92.5C 391.555,88.625 397.222,84.125 402.5,79C 403.5,78.3333 404.5,78.3333 405.5,79C 407.37,80.3662 409.37,81.5328 411.5,82.5C 414.204,75.3699 411.871,72.8699 404.5,75C 402.06,76.3034 399.56,77.47 397,78.5C 394.532,76.3577 392.365,73.8577 390.5,71C 394.21,70.1053 397.877,69.1053 401.5,68C 400.022,65.9614 398.022,65.1281 395.5,65.5C 391.486,63.6658 387.153,62.9992 382.5,63.5C 382.228,59.0983 382.561,54.7649 383.5,50.5C 380.588,48.76 377.588,47.4267 374.5,46.5C 375.492,46.6716 376.158,46.3382 376.5,45.5C 380.075,46.2377 383.075,47.9044 385.5,50.5C 384.567,54.4295 384.234,58.4295 384.5,62.5C 386.989,62.7022 389.323,62.2022 391.5,61C 394.349,57.9838 397.349,55.1504 400.5,52.5C 402.149,53.6477 403.649,54.981 405,56.5C 409.649,52.6856 414.149,48.6856 418.5,44.5C 422.167,46.6667 425.833,48.8333 429.5,51C 427.399,53.7695 424.732,55.7695 421.5,57C 416.861,58.1277 412.195,59.1277 407.5,60C 406.932,62.7554 407.765,65.2554 410,67.5C 416.47,65.0346 422.47,61.7013 428,57.5C 433.551,61.8691 437.718,67.2024 440.5,73.5C 440.167,73.5 439.833,73.5 439.5,73.5C 436.392,68.3124 432.559,63.6457 428,59.5C 422.056,64.5561 415.222,67.5561 407.5,68.5C 406.502,64.3418 405.002,60.3418 403,56.5C 402.163,54.9926 400.996,54.4926 399.5,55C 397.167,57.3333 394.833,59.6667 392.5,62C 397.649,62.7373 401.649,65.2373 404.5,69.5C 400.802,70.3939 397.135,71.3939 393.5,72.5C 394.313,73.8139 395.313,74.9805 396.5,76C 401.87,73.9906 407.537,73.1573 413.5,73.5C 413.5,80.1667 413.5,86.8333 413.5,93.5C 415.5,93.5 417.5,93.5 419.5,93.5C 419.5,86.8333 419.5,80.1667 419.5,73.5C 419.833,73.5 420.167,73.5 420.5,73.5C 420.205,75.7354 420.539,77.7354 421.5,79.5C 421.805,84.7616 421.471,89.9283 420.5,95C 417.901,95.769 415.401,95.6023 413,94.5C 412.824,91.1182 412.324,87.7848 411.5,84.5C 397.662,95.21 381.996,99.21 364.5,96.5C 363.833,95.1667 363.167,95.1667 362.5,96.5C 362.167,96.5 361.833,96.5 361.5,96.5C 353.833,96.5 346.167,96.5 338.5,96.5C 337.833,95.1667 337.167,95.1667 336.5,96.5C 334.586,95.8153 332.586,95.3153 330.5,95C 329.874,94.2496 329.374,93.4162 329,92.5C 328.5,83.8397 328.334,75.1731 328.5,66.5C 324.747,68.1392 320.747,68.8059 316.5,68.5C 316.44,67.9569 316.107,67.6236 315.5,67.5C 314.502,76.8096 314.168,86.1429 314.5,95.5C 310.767,96.821 306.934,96.821 303,95.5C 302.5,86.5062 302.334,77.5062 302.5,68.5C 298.5,68.5 294.5,68.5 290.5,68.5C 290.827,79.3349 287.16,88.5016 279.5,96C 278.256,96.4561 277.423,95.9561 277,94.5C 274.944,96.3188 272.777,96.9855 270.5,96.5C 272.261,94.7475 273.594,92.7475 274.5,90.5C 273.338,87.5072 271.671,84.8405 269.5,82.5C 269.833,82.5 270.167,82.5 270.5,82.5C 272.836,84.0038 274.669,86.0038 276,88.5C 274.608,93.7827 275.608,94.4494 279,90.5C 279.656,94.0016 280.989,94.0016 283,90.5C 287.843,81.1179 290.01,71.1179 289.5,60.5C 298.163,59.9176 306.497,57.9176 314.5,54.5C 315.521,53.9984 315.688,53.3317 315,52.5C 313.316,50.6487 311.483,48.982 309.5,47.5C 304.113,51.8619 298.113,55.1953 291.5,57.5C 289.365,54.2615 286.365,52.2615 282.5,51.5C 281.521,54.9528 280.021,55.2862 278,52.5C 277.167,53.3333 276.333,54.1667 275.5,55C 271.638,55.9133 267.972,55.5799 264.5,54C 265.5,53.1667 266.5,52.3333 267.5,51.5C 267.167,51.1667 266.833,50.8333 266.5,50.5C 261.201,49.0063 255.867,48.173 250.5,48C 252.684,50.0165 254.684,52.1831 256.5,54.5C 248.677,55.1667 241.01,55.8334 233.5,56.5C 233.5,56.8333 233.5,57.1667 233.5,57.5C 232.609,56.7387 231.942,55.7387 231.5,54.5C 238.811,53.6687 246.144,53.1687 253.5,53C 251.612,50.8104 249.445,48.9771 247,47.5C 246.333,46.8333 246.333,46.1667 247,45.5C 253.847,46.3047 260.681,47.4713 267.5,49C 268.38,50.3561 268.714,51.8561 268.5,53.5C 272.192,54.0288 275.358,53.0288 278,50.5C 279.406,51.6682 280.572,51.3348 281.5,49.5C 285.711,50.855 289.545,52.855 293,55.5C 299.331,52.836 304.998,49.1694 310,44.5C 312.646,47.9802 315.479,51.3135 318.5,54.5C 309.344,58.121 300.01,61.121 290.5,63.5C 294.833,63.8333 299.167,64.1667 303.5,64.5C 312.004,64.5239 320.337,63.8572 328.5,62.5C 328.5,57.5 328.5,52.5 328.5,47.5 Z M 387.5,86.5 C 389.932,85.2498 392.266,83.7498 394.5,82C 392.333,79.1667 390.167,76.3333 388,73.5C 387.501,77.8206 387.334,82.1539 387.5,86.5 Z M 407.5,91.5 C 405.727,92.8923 403.727,94.059 401.5,95C 404.167,95.6667 406.833,95.6667 409.5,95C 408.915,93.6976 408.249,92.531 407.5,91.5 Z"/></g>
<g><path style="opacity:1" fill="#040404" d="M 304.5,66.5 C 307.5,66.5 310.5,66.5 313.5,66.5C 313.5,76.1667 313.5,85.8333 313.5,95.5C 310.5,95.5 307.5,95.5 304.5,95.5C 304.5,85.8333 304.5,76.1667 304.5,66.5 Z"/></g>
<g><path style="opacity:0.925" fill="#0e0e0e" d="M 395.5,65.5 C 398.022,65.1281 400.022,65.9614 401.5,68C 397.877,69.1053 394.21,70.1053 390.5,71C 392.365,73.8577 394.532,76.3577 397,78.5C 399.56,77.47 402.06,76.3034 404.5,75C 411.871,72.8699 414.204,75.3699 411.5,82.5C 409.37,81.5328 407.37,80.3662 405.5,79C 404.5,78.3333 403.5,78.3333 402.5,79C 397.222,84.125 391.555,88.625 385.5,92.5C 378.5,92.5 371.5,92.5 364.5,92.5C 364.5,90.1667 364.5,87.8333 364.5,85.5C 370.822,86.014 377.155,86.3473 383.5,86.5C 383.176,79.6457 383.509,72.979 384.5,66.5C 388.371,66.815 392.038,66.4816 395.5,65.5 Z M 387.5,86.5 C 389.932,85.2498 392.266,83.7498 394.5,82C 392.333,79.1667 390.167,76.3333 388,73.5C 387.501,77.8206 387.334,82.1539 387.5,86.5 Z"/></g>
<g><path style="opacity:1" fill="#f4efec" d="M 351.5,64.5 C 351.188,71.4222 351.521,78.2555 352.5,85C 357.353,85.0843 362.186,84.5843 367,83.5C 372.134,84.5312 377.301,85.1978 382.5,85.5C 382.5,78.8333 382.5,72.1667 382.5,65.5C 383.492,65.3284 384.158,65.6618 384.5,66.5C 383.509,72.979 383.176,79.6457 383.5,86.5C 377.155,86.3473 370.822,86.014 364.5,85.5C 364.5,87.8333 364.5,90.1667 364.5,92.5C 371.5,92.5 378.5,92.5 385.5,92.5C 386.167,92.5 386.5,92.8333 386.5,93.5C 370.833,93.5 355.167,93.5 339.5,93.5C 339.5,93.1667 339.5,92.8333 339.5,92.5C 340.494,83.3483 340.827,74.015 340.5,64.5C 344.167,64.5 347.833,64.5 351.5,64.5 Z"/></g>
<g><path style="opacity:1" fill="#8e8e8e" d="M 340.5,51.5 C 340.5,55.5 340.5,59.5 340.5,63.5C 344.167,63.5 347.833,63.5 351.5,63.5C 351.5,63.8333 351.5,64.1667 351.5,64.5C 347.833,64.5 344.167,64.5 340.5,64.5C 340.827,74.015 340.494,83.3483 339.5,92.5C 339.171,78.6565 339.504,64.9898 340.5,51.5 Z"/></g>
<g><path style="opacity:1" fill="#a6a6a6" d="M 382.5,63.5 C 387.153,62.9992 391.486,63.6658 395.5,65.5C 392.038,66.4816 388.371,66.815 384.5,66.5C 384.158,65.6618 383.492,65.3284 382.5,65.5C 382.5,64.8333 382.5,64.1667 382.5,63.5 Z"/></g>
<g><path style="opacity:1" fill="#090909" d="M 317.5,64.5 C 320.187,64.3359 322.854,64.5026 325.5,65C 324.228,66.0463 322.728,66.5463 321,66.5C 319.319,66.3917 318.152,65.7251 317.5,64.5 Z"/></g>
<g><path style="opacity:1" fill="#0a0a0a" d="M 417.5,46.5 C 420.929,47.3814 423.929,49.0481 426.5,51.5C 426.023,52.4776 425.357,53.3109 424.5,54C 418.371,56.4921 412.038,57.8254 405.5,58C 410.618,55.2849 414.618,51.4516 417.5,46.5 Z"/></g>
<g><path style="opacity:1" fill="#040404" d="M 361.5,51.5 C 360.167,61.8333 360.167,72.1667 361.5,82.5C 365.5,82.5 369.5,82.5 373.5,82.5C 373.5,76.5 373.5,70.5 373.5,64.5C 373.5,64.1667 373.5,63.8333 373.5,63.5C 373.178,57.642 373.511,51.9753 374.5,46.5C 377.588,47.4267 380.588,48.76 383.5,50.5C 382.561,54.7649 382.228,59.0983 382.5,63.5C 382.5,64.1667 382.5,64.8333 382.5,65.5C 382.5,72.1667 382.5,78.8333 382.5,85.5C 377.301,85.1978 372.134,84.5312 367,83.5C 362.186,84.5843 357.353,85.0843 352.5,85C 351.521,78.2555 351.188,71.4222 351.5,64.5C 351.5,64.1667 351.5,63.8333 351.5,63.5C 351.334,57.8236 351.501,52.1569 352,46.5C 354.835,47.4195 357.668,48.4195 360.5,49.5C 361.298,49.9569 361.631,50.6236 361.5,51.5 Z"/></g>
<g><path style="opacity:1" fill="#f0efef" d="M 373.5,64.5 C 373.5,70.5 373.5,76.5 373.5,82.5C 369.5,82.5 365.5,82.5 361.5,82.5C 361.5,76.5 361.5,70.5 361.5,64.5C 365.5,64.5 369.5,64.5 373.5,64.5 Z"/></g>
<g><path style="opacity:1" fill="#000000" d="M 365.5,66.5 C 367.5,66.5 369.5,66.5 371.5,66.5C 371.5,71.1667 371.5,75.8333 371.5,80.5C 369.5,80.5 367.5,80.5 365.5,80.5C 365.5,75.8333 365.5,71.1667 365.5,66.5 Z"/></g>
<g><path style="opacity:1" fill="#767676" d="M 361.5,51.5 C 361.5,55.5 361.5,59.5 361.5,63.5C 365.5,63.5 369.5,63.5 373.5,63.5C 373.5,63.8333 373.5,64.1667 373.5,64.5C 369.5,64.5 365.5,64.5 361.5,64.5C 361.5,70.5 361.5,76.5 361.5,82.5C 360.167,72.1667 360.167,61.8333 361.5,51.5 Z"/></g>
<g><path style="opacity:1" fill="#000000" d="M 334.5,47.5 C 337.513,47.5809 339.513,48.9142 340.5,51.5C 339.504,64.9898 339.171,78.6565 339.5,92.5C 339.5,92.8333 339.5,93.1667 339.5,93.5C 339.5,93.8333 339.5,94.1667 339.5,94.5C 336.552,94.7771 333.719,94.4438 331,93.5C 330.5,78.1703 330.333,62.837 330.5,47.5C 331.833,47.5 333.167,47.5 334.5,47.5 Z"/></g>
<g><path style="opacity:1" fill="#ebebeb" d="M 431.5,71.5 C 426.167,71.5 420.833,71.5 415.5,71.5C 419.024,68.3841 423.024,65.7175 427.5,63.5C 429.887,65.6068 431.22,68.2735 431.5,71.5 Z"/></g>
<g><path style="opacity:1" fill="#171717" d="M 426.5,65.5 C 427.965,66.4057 428.965,67.739 429.5,69.5C 426.216,70.657 422.882,70.8236 419.5,70C 422.239,68.9741 424.572,67.4741 426.5,65.5 Z"/></g>
<g><path style="opacity:1" fill="#939393" d="M 316.5,68.5 C 315.833,77.5 315.167,86.5 314.5,95.5C 314.168,86.1429 314.502,76.8096 315.5,67.5C 316.107,67.6236 316.44,67.9569 316.5,68.5 Z"/></g>
<g><path style="opacity:1" fill="#7b7b7b" d="M 365.5,66.5 C 365.5,71.1667 365.5,75.8333 365.5,80.5C 367.5,80.5 369.5,80.5 371.5,80.5C 369.393,81.4682 367.059,81.8016 364.5,81.5C 364.179,76.3054 364.513,71.3054 365.5,66.5 Z"/></g>
<g><path style="opacity:1" fill="#686868" d="M 415.5,71.5 C 420.833,71.5 426.167,71.5 431.5,71.5C 431.5,72.1667 431.5,72.8333 431.5,73.5C 427.833,73.5 424.167,73.5 420.5,73.5C 420.167,73.5 419.833,73.5 419.5,73.5C 418.167,72.8333 416.833,72.1667 415.5,71.5 Z"/></g>
<g><path style="opacity:1" fill="#898989" d="M 440.5,73.5 C 441.167,73.5 441.833,73.5 442.5,73.5C 442.666,79.1764 442.499,84.8431 442,90.5C 441.283,89.9558 440.783,89.2891 440.5,88.5C 441.833,84.1667 441.833,79.8333 440.5,75.5C 440.5,74.8333 440.5,74.1667 440.5,73.5 Z"/></g>
<g><path style="opacity:1" fill="#111111" d="M 421.5,74.5 C 424.5,74.5 427.5,74.5 430.5,74.5C 430.799,76.604 430.466,78.604 429.5,80.5C 427.167,79.8333 424.833,79.1667 422.5,78.5C 421.571,77.3112 421.238,75.9778 421.5,74.5 Z"/></g>
<g><path style="opacity:1" fill="#0f0f0f" d="M 440.5,75.5 C 441.833,79.8333 441.833,84.1667 440.5,88.5C 439.412,85.5705 438.079,82.7372 436.5,80C 438.018,78.6494 439.351,77.1494 440.5,75.5 Z"/></g>
<g><path style="opacity:1" fill="#191919" d="M 339.5,94.5 C 339.5,94.1667 339.5,93.8333 339.5,93.5C 355.167,93.5 370.833,93.5 386.5,93.5C 392.824,89.666 398.824,85.3327 404.5,80.5C 406.517,81.1743 408.183,82.3409 409.5,84C 403.66,88.9201 396.993,92.2534 389.5,94C 372.837,94.4999 356.17,94.6666 339.5,94.5 Z"/></g>
<g><path style="opacity:0.897" fill="#141414" d="M 421.5,79.5 C 426.358,82.9998 429.025,87.6665 429.5,93.5C 429.5,95.5 429.5,97.5 429.5,99.5C 410.833,99.5 392.167,99.5 373.5,99.5C 373.5,100.833 373.5,102.167 373.5,103.5C 376.365,103.055 378.865,103.722 381,105.5C 381.5,118.496 381.667,131.496 381.5,144.5C 378.167,144.5 374.833,144.5 371.5,144.5C 371.5,138.5 371.5,132.5 371.5,126.5C 369.167,126.5 366.833,126.5 364.5,126.5C 364.5,124.167 364.5,121.833 364.5,119.5C 366.833,119.5 369.167,119.5 371.5,119.5C 371.824,112.646 371.491,105.979 370.5,99.5C 368.5,99.5 366.5,99.5 364.5,99.5C 364.5,98.5 364.5,97.5 364.5,96.5C 381.996,99.21 397.662,95.21 411.5,84.5C 412.324,87.7848 412.824,91.1182 413,94.5C 415.401,95.6023 417.901,95.769 420.5,95C 421.471,89.9283 421.805,84.7616 421.5,79.5 Z M 424.5,88.5 C 424.337,90.8568 424.503,93.1902 425,95.5C 425.5,94 426,92.5 426.5,91C 426.361,89.699 425.695,88.8656 424.5,88.5 Z M 407.5,91.5 C 405.727,92.8923 403.727,94.059 401.5,95C 404.167,95.6667 406.833,95.6667 409.5,95C 408.915,93.6976 408.249,92.531 407.5,91.5 Z M 374.5,106.5 C 374.666,111.179 374.499,115.845 374,120.5C 372.174,122.074 370.007,122.907 367.5,123C 369.5,123.333 371.5,123.667 373.5,124C 374.126,124.75 374.626,125.584 375,126.5C 375.171,131.533 375.671,136.533 376.5,141.5C 377.499,129.852 377.832,118.186 377.5,106.5C 376.5,106.5 375.5,106.5 374.5,106.5 Z"/></g>
<g><path style="opacity:1" fill="#131313" d="M 435.5,92.5 C 433.57,92.2294 432.236,91.2294 431.5,89.5C 430.055,86.8818 428.389,84.3818 426.5,82C 429.672,82.1683 432.672,83.1683 435.5,85C 438.099,87.5787 438.099,90.0787 435.5,92.5 Z"/></g>
<g><path style="opacity:1" fill="#0f0f0f" d="M 485.5,93.5 C 477.167,93.5 468.833,93.5 460.5,93.5C 465.5,92.8333 470.5,92.1667 475.5,91.5C 476.167,91.5 476.5,91.1667 476.5,90.5C 477.165,88.3021 477.832,85.9688 478.5,83.5C 482.497,85.8053 484.83,89.1386 485.5,93.5 Z"/></g>
<g><path style="opacity:1" fill="#afafaf" d="M 478.5,82.5 C 482.789,84.1226 485.789,87.1226 487.5,91.5C 487.058,92.7387 486.391,93.7387 485.5,94.5C 485.5,94.1667 485.5,93.8333 485.5,93.5C 484.83,89.1386 482.497,85.8053 478.5,83.5C 477.832,85.9688 477.165,88.3021 476.5,90.5C 475.964,87.3019 476.631,84.6353 478.5,82.5 Z"/></g>
<g><path style="opacity:1" fill="#fa7316" d="M 341.5,66.5 C 344.5,66.5 347.5,66.5 350.5,66.5C 350.17,73.1998 350.503,79.8665 351.5,86.5C 355.262,88.0904 358.762,87.757 362,85.5C 362.497,87.8098 362.663,90.1432 362.5,92.5C 355.5,92.5 348.5,92.5 341.5,92.5C 341.5,83.8333 341.5,75.1667 341.5,66.5 Z"/></g>
<g><path style="opacity:1" fill="#d5d5d5" d="M 233.5,57.5 C 233.5,57.1667 233.5,56.8333 233.5,56.5C 238.844,56.334 244.177,56.5006 249.5,57C 251.002,60.0047 252.002,63.1714 252.5,66.5C 245.8,66.17 239.134,66.5033 232.5,67.5C 240.807,68.4979 249.14,68.8312 257.5,68.5C 257.5,70.5 257.5,72.5 257.5,74.5C 249.16,74.3336 240.827,74.5003 232.5,75C 239.833,75.3333 247.167,75.6667 254.5,76C 249.349,85.5848 241.349,91.2515 230.5,93C 241.422,95.2472 250.589,92.0806 258,83.5C 258.499,87.4862 258.666,91.4862 258.5,95.5C 261.167,95.5 263.833,95.5 266.5,95.5C 266.5,87.1667 266.5,78.8333 266.5,70.5C 265.325,70.719 264.325,70.3857 263.5,69.5C 269.463,68.5041 275.463,68.1707 281.5,68.5C 281.229,73.8788 280.562,79.2121 279.5,84.5C 276.339,83.0869 273.339,81.4203 270.5,79.5C 269.438,80.4246 269.438,81.4246 270.5,82.5C 270.167,82.5 269.833,82.5 269.5,82.5C 267.564,86.7147 266.897,91.3814 267.5,96.5C 264.15,96.665 260.817,96.4983 257.5,96C 256.718,93.2595 256.218,90.4262 256,87.5C 247.022,95.4519 236.856,97.4519 225.5,93.5C 231.214,91.4869 236.881,89.3202 242.5,87C 246.358,84.6419 249.358,81.4752 251.5,77.5C 244.858,76.6691 238.191,76.1691 231.5,76C 230.663,74.9887 230.33,73.8221 230.5,72.5C 239.167,72.5 247.833,72.5 256.5,72.5C 256.5,71.5 256.5,70.5 256.5,69.5C 247.833,69.5 239.167,69.5 230.5,69.5C 230.5,68.1667 230.5,66.8333 230.5,65.5C 237.167,65.5 243.833,65.5 250.5,65.5C 250.244,63.0628 249.577,60.7294 248.5,58.5C 243.544,57.5059 238.544,57.1725 233.5,57.5 Z"/></g>
<g><path style="opacity:1" fill="#131313" d="M 268.5,77.5 C 272.019,76.1923 275.685,76.1923 279.5,77.5C 279.023,78.931 278.357,80.2643 277.5,81.5C 274.596,79.88 271.596,78.5467 268.5,77.5 Z"/></g>
<g><path style="opacity:1" fill="#131313" d="M 274.5,71.5 C 276.346,71.2222 277.68,71.8888 278.5,73.5C 276.579,74.641 274.579,74.8077 272.5,74C 273.381,73.2917 274.047,72.4584 274.5,71.5 Z"/></g>
<g><path style="opacity:1" fill="#222222" d="M 268.5,69.5 C 270.527,69.3379 272.527,69.5045 274.5,70C 273.022,72.0386 271.022,72.8719 268.5,72.5C 268.5,71.5 268.5,70.5 268.5,69.5 Z"/></g>
<g><path style="opacity:1" fill="#f9f8f7" d="M 431.5,89.5 C 432.236,91.2294 433.57,92.2294 435.5,92.5C 435.5,92.8333 435.5,93.1667 435.5,93.5C 434.178,93.67 433.011,93.3366 432,92.5C 430.626,107.486 429.459,122.486 428.5,137.5C 427.336,148.789 426.669,160.123 426.5,171.5C 429.5,170.833 432.5,170.167 435.5,169.5C 436.492,169.328 437.158,169.662 437.5,170.5C 433.274,172.355 428.94,174.021 424.5,175.5C 424.06,169.201 423.893,162.868 424,156.5C 422.801,159.726 422.301,163.059 422.5,166.5C 420.167,166.5 417.833,166.5 415.5,166.5C 414.739,170.784 413.405,174.784 411.5,178.5C 411.672,177.508 411.338,176.842 410.5,176.5C 411.167,173.5 411.833,170.5 412.5,167.5C 413.249,166.469 413.915,165.302 414.5,164C 416.473,163.505 418.473,163.338 420.5,163.5C 421.22,157.862 421.553,152.196 421.5,146.5C 411.167,146.5 400.833,146.5 390.5,146.5C 381.167,146.5 371.833,146.5 362.5,146.5C 362.5,129.833 362.5,113.167 362.5,96.5C 363.167,95.1667 363.833,95.1667 364.5,96.5C 364.5,97.5 364.5,98.5 364.5,99.5C 366.5,99.5 368.5,99.5 370.5,99.5C 370.5,105.833 370.5,112.167 370.5,118.5C 368.265,118.205 366.265,118.539 364.5,119.5C 364.5,121.833 364.5,124.167 364.5,126.5C 366.833,126.5 369.167,126.5 371.5,126.5C 371.5,132.5 371.5,138.5 371.5,144.5C 374.833,144.5 378.167,144.5 381.5,144.5C 381.667,131.496 381.5,118.496 381,105.5C 378.865,103.722 376.365,103.055 373.5,103.5C 373.5,102.167 373.5,100.833 373.5,99.5C 392.167,99.5 410.833,99.5 429.5,99.5C 429.5,97.5 429.5,95.5 429.5,93.5C 430.167,92.1667 430.833,90.8333 431.5,89.5 Z M 374.5,106.5 C 374.666,111.179 374.499,115.845 374,120.5C 372.174,122.074 370.007,122.907 367.5,123C 369.5,123.333 371.5,123.667 373.5,124C 374.126,124.75 374.626,125.584 375,126.5C 375.171,131.533 375.671,136.533 376.5,141.5C 377.499,129.852 377.832,118.186 377.5,106.5C 376.5,106.5 375.5,106.5 374.5,106.5 Z M 400.5,106.5 C 400.5,111.5 400.5,116.5 400.5,121.5C 406.5,121.5 412.5,121.5 418.5,121.5C 418.303,117.194 420.303,115.194 424.5,115.5C 424.5,112.5 424.5,109.5 424.5,106.5C 416.5,106.5 408.5,106.5 400.5,106.5 Z M 400.5,134.5 C 400.5,136.5 400.5,138.5 400.5,140.5C 407.508,140.666 414.508,140.5 421.5,140C 419.329,138.826 418.329,136.993 418.5,134.5C 412.5,134.5 406.5,134.5 400.5,134.5 Z"/></g>
<g><path style="opacity:1" fill="#efefef" d="M 456.5,68.5 C 456.334,75.5079 456.5,82.5079 457,89.5C 463.076,90.4764 469.242,90.8097 475.5,90.5C 475.5,87.5 475.5,84.5 475.5,81.5C 476.791,81.2627 477.791,81.596 478.5,82.5C 476.631,84.6353 475.964,87.3019 476.5,90.5C 476.5,91.1667 476.167,91.5 475.5,91.5C 469.5,91.5 463.5,91.5 457.5,91.5C 456.5,91.1667 455.833,90.5 455.5,89.5C 455.167,81.7424 455.501,74.7424 456.5,68.5 Z"/></g>
<g><path style="opacity:1" fill="#535353" d="M 457.5,91.5 C 463.5,91.5 469.5,91.5 475.5,91.5C 470.5,92.1667 465.5,92.8333 460.5,93.5C 454.974,93.8214 449.64,93.4881 444.5,92.5C 449.032,92.8182 453.366,92.4849 457.5,91.5 Z"/></g>
<g><path style="opacity:1" fill="#f8f7f7" d="M 599.5,107.5 C 598.662,107.158 598.328,106.492 598.5,105.5C 599.787,102.594 600.787,99.5939 601.5,96.5C 605.011,90.139 608.011,83.4723 610.5,76.5C 613.709,71.726 615.542,66.3926 616,60.5C 618.029,57.9708 619.862,55.3041 621.5,52.5C 618.554,51.3452 615.554,51.1786 612.5,52C 603.45,59.3847 594.116,66.3847 584.5,73C 583.177,73.8159 582.511,74.9826 582.5,76.5C 579.639,83.082 576.972,89.7487 574.5,96.5C 571.638,103.087 568.971,109.754 566.5,116.5C 563.558,123.385 560.892,130.385 558.5,137.5C 555.167,145.167 551.833,152.833 548.5,160.5C 548.5,159.167 548.5,157.833 548.5,156.5C 548.5,155.5 548.5,154.5 548.5,153.5C 530.467,148.794 522.967,137.128 526,118.5C 531.24,104.867 541.24,97.8671 556,97.5C 560.887,98.0684 565.721,98.5684 570.5,99C 574.386,90.6783 577.886,82.1783 581,73.5C 590.881,65.2839 601.048,57.4506 611.5,50C 616.202,49.1717 620.869,49.3384 625.5,50.5C 620.168,56.4994 617.001,63.4994 616,71.5C 612.167,79.8333 608.333,88.1667 604.5,96.5C 610.721,97.1853 616.888,97.8519 623,98.5C 629.472,114.248 636.138,129.915 643,145.5C 643.667,130.833 643.667,116.167 643,101.5C 640.959,100.577 638.792,100.244 636.5,100.5C 636.5,99.5 636.5,98.5 636.5,97.5C 642.833,97.5 649.167,97.5 655.5,97.5C 655.5,98.5 655.5,99.5 655.5,100.5C 653.533,100.261 651.699,100.594 650,101.5C 649.619,113.838 649.119,126.172 648.5,138.5C 648.539,141.887 648.872,145.22 649.5,148.5C 651.396,149.466 653.396,149.799 655.5,149.5C 655.5,150.833 655.5,152.167 655.5,153.5C 643.829,153.667 632.162,153.5 620.5,153C 613.853,137.548 606.853,122.381 599.5,107.5 Z M 550.5,105.5 C 549.496,106.683 548.662,108.016 548,109.5C 547.025,120.991 547.358,132.324 549,143.5C 554.722,131.165 559.556,118.499 563.5,105.5C 559.167,105.5 554.833,105.5 550.5,105.5 Z M 602.5,122.5 C 602.5,130.5 602.5,138.5 602.5,146.5C 606.384,147.197 610.217,148.197 614,149.5C 611.244,140.075 607.411,131.075 602.5,122.5 Z M 590.5,137.5 C 590.116,140.769 588.782,143.603 586.5,146C 588.107,145.981 589.774,145.815 591.5,145.5C 591.806,142.615 591.473,139.948 590.5,137.5 Z"/></g>
<g><path style="opacity:1" fill="#f86a03" d="M 610.5,76.5 C 608.011,83.4723 605.011,90.139 601.5,96.5C 592.5,96.5 583.5,96.5 574.5,96.5C 576.972,89.7487 579.639,83.082 582.5,76.5C 591.932,75.1841 601.265,75.1841 610.5,76.5 Z"/></g>
<g><path style="opacity:1" fill="#fd7709" d="M 610.5,76.5 C 601.265,75.1841 591.932,75.1841 582.5,76.5C 582.511,74.9826 583.177,73.8159 584.5,73C 594.116,66.3847 603.45,59.3847 612.5,52C 615.554,51.1786 618.554,51.3452 621.5,52.5C 619.862,55.3041 618.029,57.9708 616,60.5C 615.542,66.3926 613.709,71.726 610.5,76.5 Z"/></g>
<g><path style="opacity:1" fill="#f7f3f1" d="M 338.5,96.5 C 339.78,108.983 341.114,121.316 342.5,133.5C 343.304,144.539 344.304,155.539 345.5,166.5C 346.155,175.843 346.988,185.176 348,194.5C 349,196.5 350,198.5 351,200.5C 354.588,194.325 357.922,187.991 361,181.5C 362.325,176.599 362.825,171.599 362.5,166.5C 362.5,165.5 362.5,164.5 362.5,163.5C 369.5,163.5 376.5,163.5 383.5,163.5C 383.5,161.833 383.5,160.167 383.5,158.5C 385.924,158.192 388.257,158.526 390.5,159.5C 391.608,162.059 392.941,164.392 394.5,166.5C 394.539,167.583 394.873,168.583 395.5,169.5C 391.557,175.725 387.891,182.058 384.5,188.5C 382.412,190.336 381.079,192.669 380.5,195.5C 379.337,219.997 379.17,244.663 380,269.5C 380.717,268.956 381.217,268.289 381.5,267.5C 381.5,267.167 381.5,266.833 381.5,266.5C 382.338,266.842 382.672,267.508 382.5,268.5C 381.907,271.945 380.907,275.279 379.5,278.5C 378.081,277.995 377.415,276.995 377.5,275.5C 378.498,248.338 378.831,221.005 378.5,193.5C 383.288,185.426 387.955,177.259 392.5,169C 391.47,166.44 390.303,163.94 389,161.5C 387.989,160.663 386.822,160.33 385.5,160.5C 385.5,162.5 385.5,164.5 385.5,166.5C 378.833,166.5 372.167,166.5 365.5,166.5C 365.666,170.514 365.499,174.514 365,178.5C 360.318,187.864 355.651,197.198 351,206.5C 349.059,202.952 347.393,199.286 346,195.5C 344.622,182.847 343.456,170.18 342.5,157.5C 316.266,157.436 304.766,144.436 308,118.5C 312.784,105.343 322.284,99.0094 336.5,99.5C 336.5,98.5 336.5,97.5 336.5,96.5C 337.167,95.1667 337.833,95.1667 338.5,96.5 Z M 332.5,110.5 C 332.291,111.922 331.791,113.255 331,114.5C 330.333,124.167 330.333,133.833 331,143.5C 332.547,145.887 334.713,147.22 337.5,147.5C 336.304,135.511 335.137,123.511 334,111.5C 333.617,110.944 333.117,110.611 332.5,110.5 Z"/></g>
<g><path style="opacity:1" fill="#f9f9f9" d="M 495.5,97.5 C 504.833,97.5 514.167,97.5 523.5,97.5C 523.5,98.8333 523.5,100.167 523.5,101.5C 521.856,101.286 520.356,101.62 519,102.5C 518.5,118.497 518.333,134.497 518.5,150.5C 521.167,150.5 523.833,150.5 526.5,150.5C 526.5,151.833 526.5,153.167 526.5,154.5C 515.833,154.5 505.167,154.5 494.5,154.5C 494.5,153.167 494.5,151.833 494.5,150.5C 497.167,150.5 499.833,150.5 502.5,150.5C 502.667,134.83 502.5,119.163 502,103.5C 500.211,101.771 498.044,101.104 495.5,101.5C 495.5,100.167 495.5,98.8333 495.5,97.5 Z"/></g>
<g><path style="opacity:1" fill="#414141" d="M 278.5,100.5 C 267.167,100.5 255.833,100.5 244.5,100.5C 244.5,101.5 244.5,102.5 244.5,103.5C 246.415,103.216 248.081,103.549 249.5,104.5C 247.5,104.5 245.5,104.5 243.5,104.5C 243.5,102.833 243.5,101.167 243.5,99.5C 255.345,99.1717 267.012,99.5051 278.5,100.5 Z"/></g>
<g><path style="opacity:1" fill="#fbfbfb" d="M 278.5,100.5 C 284.849,116.715 291.682,132.715 299,148.5C 299.667,133.833 299.667,119.167 299,104.5C 296.959,103.577 294.792,103.244 292.5,103.5C 292.5,102.5 292.5,101.5 292.5,100.5C 298.833,100.5 305.167,100.5 311.5,100.5C 311.5,101.5 311.5,102.5 311.5,103.5C 308.956,103.104 306.789,103.771 305,105.5C 304.333,120.833 304.333,136.167 305,151.5C 307.041,152.423 309.208,152.756 311.5,152.5C 311.5,153.833 311.5,155.167 311.5,156.5C 299.829,156.667 288.162,156.5 276.5,156C 269.479,140.123 262.312,124.289 255,108.5C 254.223,117.548 254.389,126.548 255.5,135.5C 255.5,136.5 255.5,137.5 255.5,138.5C 252.597,134.37 249.93,130.037 247.5,125.5C 247.328,124.508 247.662,123.842 248.5,123.5C 249.222,123.918 249.722,124.584 250,125.5C 250.821,118.321 250.655,111.321 249.5,104.5C 248.081,103.549 246.415,103.216 244.5,103.5C 244.5,102.5 244.5,101.5 244.5,100.5C 255.833,100.5 267.167,100.5 278.5,100.5 Z"/></g>
<g><path style="opacity:1" fill="#fcfbfa" d="M 87.5,105.5 C 86.508,112.982 86.1746,120.648 86.5,128.5C 94.0191,128.825 101.352,128.492 108.5,127.5C 109.496,127.586 110.329,127.252 111,126.5C 111.494,124.866 111.66,123.199 111.5,121.5C 113.167,121.5 114.833,121.5 116.5,121.5C 116.5,127.5 116.5,133.5 116.5,139.5C 114.833,139.5 113.167,139.5 111.5,139.5C 111.946,136.99 111.28,134.99 109.5,133.5C 102.018,132.508 94.3516,132.175 86.5,132.5C 86.1778,138.358 86.5111,144.025 87.5,149.5C 89.8945,150.015 92.2278,150.681 94.5,151.5C 93.791,152.404 92.791,152.737 91.5,152.5C 82.6496,150.788 73.9829,148.454 65.5,145.5C 65.8417,144.662 66.5084,144.328 67.5,144.5C 68.5,144.5 69.5,144.5 70.5,144.5C 70.6665,132.162 70.4999,119.829 70,107.5C 68.2111,105.771 66.0444,105.104 63.5,105.5C 63.5,104.167 63.5,102.833 63.5,101.5C 83.8333,101.5 104.167,101.5 124.5,101.5C 124.5,107.167 124.5,112.833 124.5,118.5C 123.5,118.5 122.5,118.5 121.5,118.5C 122.216,113.61 120.883,109.444 117.5,106C 107.506,105.5 97.5056,105.334 87.5,105.5 Z"/></g>
<g><path style="opacity:1" fill="#f6f2ef" d="M 248.5,123.5 C 247.662,123.842 247.328,124.508 247.5,125.5C 246.609,124.739 245.942,123.739 245.5,122.5C 239.523,121.313 233.523,120.313 227.5,119.5C 227.34,121.199 227.506,122.866 228,124.5C 238.412,136.345 248.579,148.345 258.5,160.5C 258.56,161.043 258.893,161.376 259.5,161.5C 260.812,156.682 260.812,152.015 259.5,147.5C 257.909,144.648 256.576,141.648 255.5,138.5C 255.5,137.5 255.5,136.5 255.5,135.5C 262.457,145.005 264.457,155.672 261.5,167.5C 258.645,164.48 255.979,161.313 253.5,158C 252.167,157.333 250.833,157.333 249.5,158C 250.386,159.615 251.386,161.115 252.5,162.5C 251.833,162.5 251.5,162.833 251.5,163.5C 239.351,149.238 227.185,134.905 215,120.5C 214.805,121.819 214.972,123.153 215.5,124.5C 214.833,124.5 214.167,124.5 213.5,124.5C 211.881,119.262 209.714,114.262 207,109.5C 204.722,114.192 202.555,118.859 200.5,123.5C 199.532,125.607 199.198,127.941 199.5,130.5C 196.664,122.659 193.997,114.659 191.5,106.5C 189.336,99.3411 187.003,92.3411 184.5,85.5C 184.649,84.448 184.483,83.448 184,82.5C 173,70.1667 162,57.8333 151,45.5C 148.793,46.9969 148.126,48.9969 149,51.5C 153.234,63.3835 157.734,75.0502 162.5,86.5C 164.646,94.1062 167.313,101.44 170.5,108.5C 173.561,117.514 176.727,126.514 180,135.5C 182.639,140.618 185.805,145.285 189.5,149.5C 194.367,156.725 199.367,163.892 204.5,171C 194.415,170.177 184.415,168.51 174.5,166C 171.247,160.829 168.247,155.495 165.5,150C 155.913,145.758 148.08,139.258 142,130.5C 142.15,132.506 142.65,134.506 143.5,136.5C 143.5,137.167 143.167,137.5 142.5,137.5C 140.546,133.592 138.546,129.592 136.5,125.5C 136.931,124.707 137.265,123.873 137.5,123C 135.138,117.109 132.638,111.275 130,105.5C 128.644,104.62 127.144,104.286 125.5,104.5C 125.5,103.167 125.5,101.833 125.5,100.5C 130.833,100.5 136.167,100.5 141.5,100.5C 141.5,101.833 141.5,103.167 141.5,104.5C 139.5,104.5 137.5,104.5 135.5,104.5C 138.426,113.691 141.926,122.691 146,131.5C 149.667,135.167 153.333,138.833 157,142.5C 160.863,133.246 164.529,123.912 168,114.5C 168.863,110.961 168.03,107.961 165.5,105.5C 159.141,86.2577 152.474,67.0911 145.5,48C 147.209,45.9567 149.209,44.1234 151.5,42.5C 162.99,55.4593 174.49,68.4593 186,81.5C 187.942,87.8223 189.775,94.1556 191.5,100.5C 193.5,100.5 195.5,100.5 197.5,100.5C 197.5,101.833 197.5,103.167 197.5,104.5C 196.167,104.5 194.833,104.5 193.5,104.5C 194.309,109.094 195.809,113.427 198,117.5C 200.504,111.983 203.004,106.483 205.5,101C 211.859,100.169 218.193,100.336 224.5,101.5C 226.705,106.741 229.038,111.908 231.5,117C 236.454,118.184 241.454,119.184 246.5,120C 247.305,121.113 247.972,122.279 248.5,123.5 Z M 184.5,162.5 C 186.915,162.627 189.249,162.793 191.5,163C 189.181,161.272 186.847,161.105 184.5,162.5 Z M 179.5,146.5 C 178.708,147.967 178.708,149.3 179.5,150.5C 182.14,149.127 182.14,147.794 179.5,146.5 Z"/></g>
<g><path style="opacity:1" fill="#f66405" d="M 184.5,85.5 C 187.003,92.3411 189.336,99.3411 191.5,106.5C 184.087,105.872 177.087,106.539 170.5,108.5C 167.313,101.44 164.646,94.1062 162.5,86.5C 169.648,85.5084 176.981,85.175 184.5,85.5 Z"/></g>
<g><path style="opacity:1" fill="#fb7206" d="M 184.5,85.5 C 176.981,85.175 169.648,85.5084 162.5,86.5C 157.734,75.0502 153.234,63.3835 149,51.5C 148.126,48.9969 148.793,46.9969 151,45.5C 162,57.8333 173,70.1667 184,82.5C 184.483,83.448 184.649,84.448 184.5,85.5 Z"/></g>
<g><path style="opacity:1" fill="#c6c6c6" d="M 466.5,98.5 C 467.434,99.5676 467.768,100.901 467.5,102.5C 465.833,102.5 464.167,102.5 462.5,102.5C 462.5,118.833 462.5,135.167 462.5,151.5C 461.503,135.008 461.17,118.342 461.5,101.5C 463.167,101.5 464.833,101.5 466.5,101.5C 466.5,100.5 466.5,99.5 466.5,98.5 Z"/></g>
<g><path style="opacity:0.833" fill="#050505" d="M 548.5,102.5 C 554.176,102.334 559.843,102.501 565.5,103C 566.91,103.368 567.91,104.201 568.5,105.5C 562.834,120.153 556.667,134.487 550,148.5C 546.922,147.089 544.922,144.756 544,141.5C 543.333,130.833 543.333,120.167 544,109.5C 545.012,106.798 546.512,104.465 548.5,102.5 Z M 550.5,105.5 C 549.496,106.683 548.662,108.016 548,109.5C 547.025,120.991 547.358,132.324 549,143.5C 554.722,131.165 559.556,118.499 563.5,105.5C 559.167,105.5 554.833,105.5 550.5,105.5 Z"/></g>
<g><path style="opacity:0.881" fill="#070707" d="M 397.5,103.5 C 407.833,103.5 418.167,103.5 428.5,103.5C 428.179,111.174 427.679,118.841 427,126.5C 426.503,123.854 426.336,121.187 426.5,118.5C 425.167,118.5 423.833,118.5 422.5,118.5C 422.683,120.936 422.016,123.103 420.5,125C 412.841,125.5 405.174,125.666 397.5,125.5C 397.5,118.167 397.5,110.833 397.5,103.5 Z M 400.5,106.5 C 400.5,111.5 400.5,116.5 400.5,121.5C 406.5,121.5 412.5,121.5 418.5,121.5C 418.303,117.194 420.303,115.194 424.5,115.5C 424.5,112.5 424.5,109.5 424.5,106.5C 416.5,106.5 408.5,106.5 400.5,106.5 Z"/></g>
<g><path style="opacity:0.892" fill="#0e0e0e" d="M 334.5,105.5 C 335.5,105.5 336.5,105.5 337.5,105.5C 338.833,121.167 340.167,136.833 341.5,152.5C 335.797,152.399 331.297,150.066 328,145.5C 327.333,134.167 327.333,122.833 328,111.5C 329.914,109.144 332.081,107.144 334.5,105.5 Z M 332.5,110.5 C 332.291,111.922 331.791,113.255 331,114.5C 330.333,124.167 330.333,133.833 331,143.5C 332.547,145.887 334.713,147.22 337.5,147.5C 336.304,135.511 335.137,123.511 334,111.5C 333.617,110.944 333.117,110.611 332.5,110.5 Z"/></g>
<g><path style="opacity:1" fill="#f25b01" d="M 338.5,96.5 C 346.167,96.5 353.833,96.5 361.5,96.5C 361.5,107.5 361.5,118.5 361.5,129.5C 355.167,129.5 348.833,129.5 342.5,129.5C 342.5,130.833 342.5,132.167 342.5,133.5C 341.114,121.316 339.78,108.983 338.5,96.5 Z"/></g>
<g><path style="opacity:1" fill="#f35e03" d="M 574.5,96.5 C 583.5,96.5 592.5,96.5 601.5,96.5C 600.787,99.5939 599.787,102.594 598.5,105.5C 596.5,109.5 594.5,113.5 592.5,117.5C 584.016,116.507 575.349,116.174 566.5,116.5C 568.971,109.754 571.638,103.087 574.5,96.5 Z"/></g>
<g><path style="opacity:0.871" fill="#0b0b0b" d="M 213.5,124.5 C 215.095,130.121 216.595,135.788 218,141.5C 221.789,144.095 223.622,147.428 223.5,151.5C 221.851,149.35 220.018,147.35 218,145.5C 217.308,146.025 216.808,146.692 216.5,147.5C 219.144,155.767 221.81,164.1 224.5,172.5C 224.167,172.833 223.833,173.167 223.5,173.5C 221.224,172.787 218.891,172.287 216.5,172C 215.333,171.5 214.5,170.667 214,169.5C 208.779,154.341 204.279,139.008 200.5,123.5C 202.555,118.859 204.722,114.192 207,109.5C 209.714,114.262 211.881,119.262 213.5,124.5 Z M 206.5,117.5 C 205.929,120.477 204.929,123.31 203.5,126C 208.192,139.744 212.692,153.577 217,167.5C 217.893,168.711 218.726,168.711 219.5,167.5C 215.404,158.584 213.57,149.251 214,139.5C 212.095,131.84 209.595,124.507 206.5,117.5 Z"/></g>
<g><path style="opacity:1" fill="#636363" d="M 370.5,99.5 C 371.491,105.979 371.824,112.646 371.5,119.5C 369.167,119.5 366.833,119.5 364.5,119.5C 366.265,118.539 368.265,118.205 370.5,118.5C 370.5,112.167 370.5,105.833 370.5,99.5 Z"/></g>
<g><path style="opacity:1" fill="#939393" d="M 87.5,105.5 C 87.5,112.833 87.5,120.167 87.5,127.5C 94.5,127.5 101.5,127.5 108.5,127.5C 101.352,128.492 94.0191,128.825 86.5,128.5C 86.1746,120.648 86.508,112.982 87.5,105.5 Z"/></g>
<g><path style="opacity:1" fill="#ed5104" d="M 191.5,106.5 C 193.997,114.659 196.664,122.659 199.5,130.5C 200.964,136.225 202.631,141.892 204.5,147.5C 199.056,146.892 194.056,147.558 189.5,149.5C 185.805,145.285 182.639,140.618 180,135.5C 176.727,126.514 173.561,117.514 170.5,108.5C 177.087,106.539 184.087,105.872 191.5,106.5 Z"/></g>
<g><path style="opacity:1" fill="#f05807" d="M 441.5,137.5 C 437.167,137.5 432.833,137.5 428.5,137.5C 429.459,122.486 430.626,107.486 432,92.5C 433.011,93.3366 434.178,93.67 435.5,93.5C 437.411,93.4257 438.578,92.4257 439,90.5C 441.772,95.0445 444.272,99.7112 446.5,104.5C 444.613,115.487 442.947,126.487 441.5,137.5 Z"/></g>
<g><path style="opacity:1" fill="#ed5102" d="M 566.5,116.5 C 575.349,116.174 584.016,116.507 592.5,117.5C 590.011,124.472 587.011,131.139 583.5,137.5C 575.167,137.5 566.833,137.5 558.5,137.5C 560.892,130.385 563.558,123.385 566.5,116.5 Z"/></g>
<g><path style="opacity:0.833" fill="#050505" d="M 421.5,133.5 C 421.5,134.833 421.5,136.167 421.5,137.5C 422.833,137.5 424.167,137.5 425.5,137.5C 425.5,138.833 425.5,140.167 425.5,141.5C 426.986,144.9 426.82,148.233 425,151.5C 424.503,149.19 424.337,146.857 424.5,144.5C 415.5,144.5 406.5,144.5 397.5,144.5C 397.5,139.833 397.5,135.167 397.5,130.5C 405.174,130.334 412.841,130.5 420.5,131C 421.252,131.671 421.586,132.504 421.5,133.5 Z M 400.5,134.5 C 400.5,136.5 400.5,138.5 400.5,140.5C 407.508,140.666 414.508,140.5 421.5,140C 419.329,138.826 418.329,136.993 418.5,134.5C 412.5,134.5 406.5,134.5 400.5,134.5 Z"/></g>
<g><path style="opacity:1" fill="#636363" d="M 109.5,133.5 C 102.167,133.5 94.8333,133.5 87.5,133.5C 87.5,138.833 87.5,144.167 87.5,149.5C 86.5111,144.025 86.1778,138.358 86.5,132.5C 94.3516,132.175 102.018,132.508 109.5,133.5 Z"/></g>
<g><path style="opacity:1" fill="#5f5f5f" d="M 421.5,133.5 C 422.404,134.209 422.737,135.209 422.5,136.5C 423.833,136.5 425.167,136.5 426.5,136.5C 426.784,138.415 426.451,140.081 425.5,141.5C 425.5,140.167 425.5,138.833 425.5,137.5C 424.167,137.5 422.833,137.5 421.5,137.5C 421.5,136.167 421.5,134.833 421.5,133.5 Z"/></g>
<g><path style="opacity:1" fill="#eb4d06" d="M 247.5,125.5 C 249.93,130.037 252.597,134.37 255.5,138.5C 256.576,141.648 257.909,144.648 259.5,147.5C 259.818,152.032 259.485,156.366 258.5,160.5C 248.579,148.345 238.412,136.345 228,124.5C 227.506,122.866 227.34,121.199 227.5,119.5C 233.523,120.313 239.523,121.313 245.5,122.5C 245.942,123.739 246.609,124.739 247.5,125.5 Z"/></g>
<g><path style="opacity:1" fill="#e84606" d="M 428.5,137.5 C 432.833,137.5 437.167,137.5 441.5,137.5C 440.298,146.485 439.131,155.485 438,164.5C 437.665,166.503 436.832,168.17 435.5,169.5C 432.5,170.167 429.5,170.833 426.5,171.5C 426.669,160.123 427.336,148.789 428.5,137.5 Z"/></g>
<g><path style="opacity:1" fill="#eb4e0b" d="M 454.5,151.5 C 451.833,151.5 449.167,151.5 446.5,151.5C 447.627,141.741 449.293,132.074 451.5,122.5C 454.045,125.874 456.378,129.374 458.5,133C 457.216,139.217 455.882,145.383 454.5,151.5 Z"/></g>
<g><path style="opacity:1" fill="#f49568" d="M 361.5,96.5 C 361.833,96.5 362.167,96.5 362.5,96.5C 362.5,113.167 362.5,129.833 362.5,146.5C 371.833,146.5 381.167,146.5 390.5,146.5C 381.014,147.494 371.348,147.827 361.5,147.5C 361.5,141.5 361.5,135.5 361.5,129.5C 361.5,118.5 361.5,107.5 361.5,96.5 Z"/></g>
<g><path style="opacity:1" fill="#f6bba4" d="M 259.5,147.5 C 260.812,152.015 260.812,156.682 259.5,161.5C 258.893,161.376 258.56,161.043 258.5,160.5C 259.485,156.366 259.818,152.032 259.5,147.5 Z"/></g>
<g><path style="opacity:1" fill="#1e1e1e" d="M 444.5,130.5 C 445.963,137.451 445.63,144.451 443.5,151.5C 443.167,150.333 442.833,149.167 442.5,148C 443.496,142.197 444.163,136.364 444.5,130.5 Z"/></g>
<g><path style="opacity:1" fill="#222222" d="M 244.5,148.5 C 245.962,149.458 247.295,150.624 248.5,152C 245.862,152.509 244.528,151.342 244.5,148.5 Z"/></g>
<g><path style="opacity:1" fill="#e74609" d="M 251.5,163.5 C 253.759,166.938 256.259,170.271 259,173.5C 259.667,176.833 259.667,180.167 259,183.5C 246.333,169.5 233.667,155.5 221,141.5C 219.058,135.842 217.225,130.175 215.5,124.5C 214.972,123.153 214.805,121.819 215,120.5C 227.185,134.905 239.351,149.238 251.5,163.5 Z"/></g>
<g><path style="opacity:1" fill="#e74203" d="M 361.5,129.5 C 361.5,135.5 361.5,141.5 361.5,147.5C 371.348,147.827 381.014,147.494 390.5,146.5C 400.833,146.5 411.167,146.5 421.5,146.5C 421.553,152.196 421.22,157.862 420.5,163.5C 418.473,163.338 416.473,163.505 414.5,164C 413.915,165.302 413.249,166.469 412.5,167.5C 406.69,166.51 400.69,166.177 394.5,166.5C 392.941,164.392 391.608,162.059 390.5,159.5C 388.257,158.526 385.924,158.192 383.5,158.5C 383.5,160.167 383.5,161.833 383.5,163.5C 376.5,163.5 369.5,163.5 362.5,163.5C 362.5,164.5 362.5,165.5 362.5,166.5C 356.833,166.5 351.167,166.5 345.5,166.5C 344.304,155.539 343.304,144.539 342.5,133.5C 342.5,132.167 342.5,130.833 342.5,129.5C 348.833,129.5 355.167,129.5 361.5,129.5 Z"/></g>
<g><path style="opacity:0.835" fill="#0a0a0a" d="M 582.5,202.5 C 584.553,202.598 586.22,201.931 587.5,200.5C 588.492,200.672 589.158,200.338 589.5,199.5C 617.583,187.961 645.583,176.128 673.5,164C 681.5,163.333 689.5,163.333 697.5,164C 701.327,167.095 701.327,170.095 697.5,173C 661.989,191.256 626.322,209.256 590.5,227C 588.711,227.52 587.044,227.187 585.5,226C 580.788,220.957 576.455,215.623 572.5,210C 573.167,209 573.833,208 574.5,207C 577.391,205.726 580.058,204.226 582.5,202.5 Z"/></g>
<g><path style="opacity:1" fill="#e43d05" d="M 189.5,149.5 C 194.056,147.558 199.056,146.892 204.5,147.5C 207.221,156.164 210.055,164.831 213,173.5C 217.69,174.941 222.523,175.608 227.5,175.5C 225.337,168.18 223.503,160.846 222,153.5C 228.669,161.667 235.502,169.667 242.5,177.5C 215.812,176.842 189.479,177.509 163.5,179.5C 157.107,165.047 150.44,150.713 143.5,136.5C 142.65,134.506 142.15,132.506 142,130.5C 148.08,139.258 155.913,145.758 165.5,150C 168.247,155.495 171.247,160.829 174.5,166C 184.415,168.51 194.415,170.177 204.5,171C 199.367,163.892 194.367,156.725 189.5,149.5 Z M 184.5,162.5 C 186.915,162.627 189.249,162.793 191.5,163C 189.181,161.272 186.847,161.105 184.5,162.5 Z"/></g>
<g><path style="opacity:1" fill="#e23804" d="M 481.5,190.5 C 478.742,189.182 475.576,188.515 472,188.5C 468.417,188.537 464.917,188.87 461.5,189.5C 464.429,175.717 467.763,162.05 471.5,148.5C 476.45,154.622 481.617,160.622 487,166.5C 486.099,174.765 484.266,182.765 481.5,190.5 Z"/></g>
<g><path style="opacity:1" fill="#e43d03" d="M 558.5,137.5 C 566.833,137.5 575.167,137.5 583.5,137.5C 578.454,149.928 573.121,162.262 567.5,174.5C 565.427,176.58 563.093,178.246 560.5,179.5C 553.687,178.509 546.687,178.175 539.5,178.5C 543.992,173.426 546.992,167.426 548.5,160.5C 551.833,152.833 555.167,145.167 558.5,137.5 Z"/></g>
<g><path style="opacity:1" fill="#efe2e0" d="M 67.5,144.5 C 66.5084,144.328 65.8417,144.662 65.5,145.5C 52.5132,141.999 39.5132,138.832 26.5,136C 32.7764,145.942 39.4431,155.608 46.5,165C 50.5323,165.773 54.5323,166.606 58.5,167.5C 64.1106,168.722 69.7773,169.889 75.5,171C 81.5272,180.261 90.1939,185.261 101.5,186C 107.725,187.938 113.725,187.271 119.5,184C 124.076,183.05 127.076,184.883 128.5,189.5C 126.066,191.921 124.066,194.588 122.5,197.5C 121.903,197.735 121.57,198.235 121.5,199C 124.735,207.54 128.069,216.04 131.5,224.5C 130.624,225.251 129.624,225.751 128.5,226C 117.475,226.291 106.475,226.958 95.5,228C 87.6362,237.564 80.1362,247.397 73,257.5C 72.3123,258.332 72.479,258.998 73.5,259.5C 107.883,250.154 142.216,240.654 176.5,231C 175.039,228.579 173.706,226.079 172.5,223.5C 171.667,223.167 170.833,222.833 170,222.5C 162.202,223.785 154.368,224.285 146.5,224C 141.932,215.026 137.265,206.193 132.5,197.5C 139.103,191.908 145.769,186.242 152.5,180.5C 150.941,176.381 149.107,172.381 147,168.5C 144.313,167.287 141.48,166.62 138.5,166.5C 122.833,161.833 107.167,157.167 91.5,152.5C 92.791,152.737 93.791,152.404 94.5,151.5C 102.625,154.209 110.958,155.042 119.5,154C 120.515,150.427 122.182,147.26 124.5,144.5C 125.72,144.887 126.387,145.72 126.5,147C 124.553,151.065 124.22,155.231 125.5,159.5C 133.219,161.679 140.885,164.013 148.5,166.5C 151.107,171.38 153.44,176.38 155.5,181.5C 149.503,186.659 143.336,191.659 137,196.5C 139.288,205.585 143.121,214.085 148.5,222C 156.774,221.189 165.107,220.856 173.5,221C 175.628,224.755 177.628,228.588 179.5,232.5C 142.426,243.061 105.26,253.394 68,263.5C 66.7425,263.15 66.4092,262.483 67,261.5C 75.9551,249.756 84.7884,237.923 93.5,226C 105.233,225.341 116.899,224.174 128.5,222.5C 125.028,214.39 121.695,206.223 118.5,198C 120.631,195.032 122.964,192.199 125.5,189.5C 124.52,188.019 123.353,186.685 122,185.5C 117.555,187.26 113.055,188.927 108.5,190.5C 99.9291,187.69 91.2624,185.19 82.5,183C 79.8333,179 76.5,175.667 72.5,173C 62.9062,171.082 53.4062,168.916 44,166.5C 36.7247,154.893 29.0581,143.56 21,132.5C 20.3333,131.833 20.3333,131.167 21,130.5C 36.6126,135.107 52.1126,139.774 67.5,144.5 Z"/></g>
<g><path style="opacity:1" fill="#e13502" d="M 58.5,167.5 C 84.9948,166.502 111.661,166.169 138.5,166.5C 141.48,166.62 144.313,167.287 147,168.5C 149.107,172.381 150.941,176.381 152.5,180.5C 145.769,186.242 139.103,191.908 132.5,197.5C 129.167,197.5 125.833,197.5 122.5,197.5C 124.066,194.588 126.066,191.921 128.5,189.5C 127.076,184.883 124.076,183.05 119.5,184C 113.725,187.271 107.725,187.938 101.5,186C 90.1939,185.261 81.5272,180.261 75.5,171C 69.7773,169.889 64.1106,168.722 58.5,167.5 Z"/></g>
<g><path style="opacity:1" fill="#e53f01" d="M 65.5,145.5 C 73.9829,148.454 82.6496,150.788 91.5,152.5C 107.167,157.167 122.833,161.833 138.5,166.5C 111.661,166.169 84.9948,166.502 58.5,167.5C 54.5323,166.606 50.5323,165.773 46.5,165C 39.4431,155.608 32.7764,145.942 26.5,136C 39.5132,138.832 52.5132,141.999 65.5,145.5 Z"/></g>
<g><path style="opacity:1" fill="#e03405" d="M 345.5,166.5 C 351.167,166.5 356.833,166.5 362.5,166.5C 362.825,171.599 362.325,176.599 361,181.5C 357.922,187.991 354.588,194.325 351,200.5C 350,198.5 349,196.5 348,194.5C 346.988,185.176 346.155,175.843 345.5,166.5 Z"/></g>
<g><path style="opacity:1" fill="#e03303" d="M 394.5,166.5 C 400.69,166.177 406.69,166.51 412.5,167.5C 411.833,170.5 411.167,173.5 410.5,176.5C 409.033,180.901 407.366,185.234 405.5,189.5C 398.687,188.509 391.687,188.175 384.5,188.5C 387.891,182.058 391.557,175.725 395.5,169.5C 394.873,168.583 394.539,167.583 394.5,166.5 Z"/></g>
<g><path style="opacity:0.82" fill="#0a0a0a" d="M 281.5,180.5 C 296.242,182.882 310.909,185.715 325.5,189C 328.211,192.922 331.045,196.756 334,200.5C 335.544,204.812 334.044,206.978 329.5,207C 317.837,208.128 306.17,208.795 294.5,209C 289.27,201.431 284.437,193.598 280,185.5C 279.387,183.505 279.887,181.838 281.5,180.5 Z"/></g>
<g><path style="opacity:1" fill="#f1e6e3" d="M 283.5,185.5 C 283.917,184.876 284.584,184.543 285.5,184.5C 298.145,187.107 310.812,189.607 323.5,192C 326.167,195.667 328.833,199.333 331.5,203C 319.515,204.281 307.515,204.948 295.5,205C 291.637,198.328 287.637,191.828 283.5,185.5 Z"/></g>
<g><path style="opacity:1" fill="#dc2c06" d="M 288.5,187.5 C 299.444,189.855 310.444,192.022 321.5,194C 323.53,195.896 325.197,198.063 326.5,200.5C 316.536,202.446 306.536,203.113 296.5,202.5C 293.554,197.605 290.887,192.605 288.5,187.5 Z"/></g>
<g><path style="opacity:1" fill="#f0e2df" d="M 410.5,176.5 C 411.338,176.842 411.672,177.508 411.5,178.5C 402.607,208.842 392.941,238.842 382.5,268.5C 382.672,267.508 382.338,266.842 381.5,266.5C 389.5,240.833 397.5,215.166 405.5,189.5C 407.366,185.234 409.033,180.901 410.5,176.5 Z"/></g>
<g><path style="opacity:1" fill="#de2f04" d="M 446.5,151.5 C 449.167,151.5 451.833,151.5 454.5,151.5C 452.308,167.604 449.475,183.604 446,199.5C 442.362,205.303 438.529,210.97 434.5,216.5C 432.333,212.833 430.167,209.167 428,205.5C 427.685,197.352 428.685,189.352 431,181.5C 434.354,179.548 437.854,177.881 441.5,176.5C 443.49,168.226 445.157,159.893 446.5,151.5 Z"/></g>
<g><path style="opacity:1" fill="#7d7d7d" d="M 378.5,193.5 C 378.831,221.005 378.498,248.338 377.5,275.5C 377.83,256.659 377.497,237.993 376.5,219.5C 376.5,219.167 376.5,218.833 376.5,218.5C 377.167,210.167 377.833,201.833 378.5,193.5 Z"/></g>
<g><path style="opacity:1" fill="#d72001" d="M 384.5,188.5 C 391.687,188.175 398.687,188.509 405.5,189.5C 397.5,215.166 389.5,240.833 381.5,266.5C 381.5,266.833 381.5,267.167 381.5,267.5C 380.502,243.672 380.169,219.672 380.5,195.5C 381.079,192.669 382.412,190.336 384.5,188.5 Z"/></g>
<g><path style="opacity:1" fill="#eee5e3" d="M 672.5,167.5 C 680.5,167.5 688.5,167.5 696.5,167.5C 696.5,168.5 696.5,169.5 696.5,170.5C 660.669,187.998 624.836,205.665 589,223.5C 584.535,219.365 580.368,214.865 576.5,210C 608.677,196.075 640.677,181.908 672.5,167.5 Z"/></g>
<g><path style="opacity:1" fill="#dc2c06" d="M 674.5,169.5 C 679.844,169.334 685.177,169.501 690.5,170C 657.656,186.922 624.656,203.589 591.5,220C 590.5,220.667 589.5,220.667 588.5,220C 585.462,217.297 582.795,214.297 580.5,211C 611.776,196.86 643.109,183.026 674.5,169.5 Z"/></g>
<g><path style="opacity:1" fill="#bdbdbd" d="M 263.5,218.5 C 282.17,218.333 300.836,218.5 319.5,219C 318.295,220.376 316.962,221.542 315.5,222.5C 315.414,221.504 315.748,220.671 316.5,220C 298.662,219.832 280.995,219.332 263.5,218.5 Z"/></g>
<g><path style="opacity:1" fill="#d21503" d="M 122.5,197.5 C 125.833,197.5 129.167,197.5 132.5,197.5C 137.265,206.193 141.932,215.026 146.5,224C 154.368,224.285 162.202,223.785 170,222.5C 170.833,222.833 171.667,223.167 172.5,223.5C 173.706,226.079 175.039,228.579 176.5,231C 142.216,240.654 107.883,250.154 73.5,259.5C 72.479,258.998 72.3123,258.332 73,257.5C 80.1362,247.397 87.6362,237.564 95.5,228C 106.475,226.958 117.475,226.291 128.5,226C 129.624,225.751 130.624,225.251 131.5,224.5C 128.069,216.04 124.735,207.54 121.5,199C 121.57,198.235 121.903,197.735 122.5,197.5 Z"/></g>
<g><path style="opacity:1" fill="#d31904" d="M 481.5,190.5 C 479.897,200.256 477.063,209.59 473,218.5C 455.546,240.956 437.713,263.122 419.5,285C 416.57,286.318 413.57,286.985 410.5,287C 425.874,261.084 441.374,235.25 457,209.5C 458.823,202.89 460.323,196.223 461.5,189.5C 464.917,188.87 468.417,188.537 472,188.5C 475.576,188.515 478.742,189.182 481.5,190.5 Z"/></g>
<g><path style="opacity:1" fill="#f0e6e4" d="M 200.5,123.5 C 204.279,139.008 208.779,154.341 214,169.5C 214.5,170.667 215.333,171.5 216.5,172C 218.891,172.287 221.224,172.787 223.5,173.5C 223.833,173.167 224.167,172.833 224.5,172.5C 221.81,164.1 219.144,155.767 216.5,147.5C 216.808,146.692 217.308,146.025 218,145.5C 220.018,147.35 221.851,149.35 223.5,151.5C 223.622,147.428 221.789,144.095 218,141.5C 216.595,135.788 215.095,130.121 213.5,124.5C 214.167,124.5 214.833,124.5 215.5,124.5C 217.225,130.175 219.058,135.842 221,141.5C 233.667,155.5 246.333,169.5 259,183.5C 259.667,180.167 259.667,176.833 259,173.5C 256.259,170.271 253.759,166.938 251.5,163.5C 251.5,162.833 251.833,162.5 252.5,162.5C 255.802,165.974 258.968,169.641 262,173.5C 262.667,179.167 262.667,184.833 262,190.5C 252.536,179.368 242.703,168.534 232.5,158C 231.365,157.251 230.365,157.417 229.5,158.5C 239.814,170.648 250.314,182.648 261,194.5C 262.103,202.575 262.937,210.575 263.5,218.5C 280.995,219.332 298.662,219.832 316.5,220C 315.748,220.671 315.414,221.504 315.5,222.5C 308.071,231.432 300.071,239.932 291.5,248C 289.893,247.981 288.226,247.815 286.5,247.5C 286.666,254.841 286.5,262.174 286,269.5C 283.584,274.001 280.917,278.334 278,282.5C 276.298,267.204 275.131,251.87 274.5,236.5C 279.982,237.405 284.649,235.905 288.5,232C 279.84,231.5 271.173,231.334 262.5,231.5C 262.666,239.84 262.5,248.173 262,256.5C 259.667,263.5 257.333,270.5 255,277.5C 246.464,248.892 238.131,220.226 230,191.5C 217.068,190.017 204.068,188.683 191,187.5C 188.833,187.833 186.667,188.167 184.5,188.5C 189.228,199.683 193.561,211.016 197.5,222.5C 195.232,230.805 193.065,239.139 191,247.5C 174.35,211.051 158.183,174.384 142.5,137.5C 143.167,137.5 143.5,137.167 143.5,136.5C 150.44,150.713 157.107,165.047 163.5,179.5C 172.321,199.812 181.154,220.145 190,240.5C 191.635,234.595 193.469,228.761 195.5,223C 190.691,210.237 185.691,197.571 180.5,185C 197.516,185.789 214.516,187.122 231.5,189C 232.761,192.952 234.094,196.786 235.5,200.5C 241.84,223.525 248.34,246.525 255,269.5C 256.864,264.909 258.53,260.243 260,255.5C 260.5,246.84 260.666,238.173 260.5,229.5C 272.012,229.172 283.346,229.505 294.5,230.5C 290.988,233.17 287.322,235.67 283.5,238C 281.19,238.497 278.857,238.663 276.5,238.5C 277.005,250.566 278.172,262.566 280,274.5C 281.333,272.5 282.667,270.5 284,268.5C 284.333,260.167 284.667,251.833 285,243.5C 287.015,244.842 289.182,245.342 291.5,245C 298.338,237.329 305.338,229.829 312.5,222.5C 313.043,222.44 313.376,222.107 313.5,221.5C 295.846,220.5 278.179,220.167 260.5,220.5C 260.666,212.826 260.5,205.159 260,197.5C 254.385,190.574 248.552,183.907 242.5,177.5C 235.502,169.667 228.669,161.667 222,153.5C 223.503,160.846 225.337,168.18 227.5,175.5C 222.523,175.608 217.69,174.941 213,173.5C 210.055,164.831 207.221,156.164 204.5,147.5C 202.631,141.892 200.964,136.225 199.5,130.5C 199.198,127.941 199.532,125.607 200.5,123.5 Z M 184.5,162.5 C 186.915,162.627 189.249,162.793 191.5,163C 189.181,161.272 186.847,161.105 184.5,162.5 Z M 179.5,146.5 C 178.708,147.967 178.708,149.3 179.5,150.5C 182.14,149.127 182.14,147.794 179.5,146.5 Z"/></g>
<g><path style="opacity:1" fill="#d31603" d="M 235.5,200.5 C 243.5,200.5 251.5,200.5 259.5,200.5C 259.175,207.687 259.509,214.687 260.5,221.5C 278.008,221.17 295.341,221.503 312.5,222.5C 305.338,229.829 298.338,237.329 291.5,245C 289.182,245.342 287.015,244.842 285,243.5C 284.667,251.833 284.333,260.167 284,268.5C 282.667,270.5 281.333,272.5 280,274.5C 278.172,262.566 277.005,250.566 276.5,238.5C 278.857,238.663 281.19,238.497 283.5,238C 287.322,235.67 290.988,233.17 294.5,230.5C 295.043,230.44 295.376,230.107 295.5,229.5C 283.673,228.176 272.007,228.176 260.5,229.5C 260.666,238.173 260.5,246.84 260,255.5C 258.53,260.243 256.864,264.909 255,269.5C 248.34,246.525 241.84,223.525 235.5,200.5 Z"/></g>
<g><path style="opacity:1" fill="#e77b71" d="M 260.5,229.5 C 272.007,228.176 283.673,228.176 295.5,229.5C 295.376,230.107 295.043,230.44 294.5,230.5C 283.346,229.505 272.012,229.172 260.5,229.5 Z"/></g>
<g><path style="opacity:1" fill="#eea298" d="M 260.5,221.5 C 260.5,221.167 260.5,220.833 260.5,220.5C 278.179,220.167 295.846,220.5 313.5,221.5C 313.376,222.107 313.043,222.44 312.5,222.5C 295.341,221.503 278.008,221.17 260.5,221.5 Z"/></g>
<g><path style="opacity:1" fill="#dd2d04" d="M 242.5,177.5 C 248.552,183.907 254.385,190.574 260,197.5C 260.5,205.159 260.666,212.826 260.5,220.5C 260.5,220.833 260.5,221.167 260.5,221.5C 259.509,214.687 259.175,207.687 259.5,200.5C 251.5,200.5 243.5,200.5 235.5,200.5C 234.094,196.786 232.761,192.952 231.5,189C 214.516,187.122 197.516,185.789 180.5,185C 185.691,197.571 190.691,210.237 195.5,223C 193.469,228.761 191.635,234.595 190,240.5C 181.154,220.145 172.321,199.812 163.5,179.5C 189.479,177.509 215.812,176.842 242.5,177.5 Z"/></g>
<g><path style="opacity:0.919" fill="#0c0c0c" d="M 178.5,139.5 C 181.161,142.171 183.494,145.171 185.5,148.5C 184.815,152.618 182.482,154.618 178.5,154.5C 178.5,155.833 178.5,157.167 178.5,158.5C 188.034,156.31 195.034,159.31 199.5,167.5C 199,167.833 198.5,168.167 198,168.5C 192.203,167.173 186.369,166.006 180.5,165C 175.554,164.15 172.887,161.15 172.5,156C 174.367,150.437 176.367,144.937 178.5,139.5 Z M 184.5,162.5 C 186.915,162.627 189.249,162.793 191.5,163C 189.181,161.272 186.847,161.105 184.5,162.5 Z M 179.5,146.5 C 178.708,147.967 178.708,149.3 179.5,150.5C 182.14,149.127 182.14,147.794 179.5,146.5 Z"/></g>
<g><path style="opacity:1" fill="#ebe1e0" d="M 598.5,105.5 C 598.328,106.492 598.662,107.158 599.5,107.5C 599.333,121.171 599.5,134.837 600,148.5C 605.211,151.013 610.711,152.846 616.5,154C 618.707,158.247 621.04,162.414 623.5,166.5C 606.283,170.843 588.95,174.343 571.5,177C 577.544,168.412 583.211,159.578 588.5,150.5C 590.173,148.914 592.173,148.247 594.5,148.5C 594.666,139.161 594.5,129.827 594,120.5C 585.684,139.136 577.35,157.803 569,176.5C 563.5,180.667 558,184.833 552.5,189C 553.025,189.692 553.692,190.192 554.5,190.5C 557.196,189.149 559.53,187.316 561.5,185C 572.515,184.168 583.515,184.334 594.5,185.5C 592.092,189.826 589.092,193.659 585.5,197C 572.371,201.876 559.371,207.042 546.5,212.5C 547.69,215.174 548.524,217.84 549,220.5C 542.667,226.5 536.333,232.5 530,238.5C 526,245.833 522,253.167 518,260.5C 512.319,266.348 506.485,272.015 500.5,277.5C 498.054,276.573 497.221,274.906 498,272.5C 506.5,253.5 515,234.5 523.5,215.5C 519.541,214.34 515.541,214.173 511.5,215C 509.704,218.76 508.038,222.593 506.5,226.5C 502.583,228.708 498.75,231.041 495,233.5C 494.735,235.163 495.235,236.663 496.5,238C 483.167,249 469.833,260 456.5,271C 450.804,271.83 445.137,271.663 439.5,270.5C 454.814,252.685 470.314,235.018 486,217.5C 489.476,206.93 492.643,196.264 495.5,185.5C 507.248,184.96 518.915,184.126 530.5,183C 534.095,179.95 537.595,176.784 541,173.5C 543.232,167.607 545.732,161.941 548.5,156.5C 548.5,157.833 548.5,159.167 548.5,160.5C 546.992,167.426 543.992,173.426 539.5,178.5C 535.746,180.748 532.412,183.581 529.5,187C 518.505,187.5 507.505,187.667 496.5,187.5C 495.139,194.562 493.472,201.562 491.5,208.5C 490.519,211.421 489.685,214.421 489,217.5C 473.833,234.667 458.667,251.833 443.5,269C 449.751,269.781 455.418,268.448 460.5,265C 470.907,256.048 481.407,247.214 492,238.5C 492.624,236.536 492.124,234.869 490.5,233.5C 494.87,230.634 499.37,227.968 504,225.5C 505.837,221.316 507.671,217.15 509.5,213C 515.196,212.17 520.863,212.337 526.5,213.5C 517.833,233.167 509.167,252.833 500.5,272.5C 506.156,268.377 511.656,263.377 517,257.5C 520.667,250.833 524.333,244.167 528,237.5C 533.698,231.468 539.698,225.801 546,220.5C 546.004,217.169 545.171,214.002 543.5,211C 545.193,210.153 546.86,209.32 548.5,208.5C 560.438,203.909 572.438,199.409 584.5,195C 586.539,193.074 588.206,190.907 589.5,188.5C 590.043,188.44 590.376,188.107 590.5,187.5C 587.232,186.513 583.898,186.18 580.5,186.5C 569.992,184.266 561.159,186.933 554,194.5C 552.257,192.679 550.757,190.679 549.5,188.5C 553.014,185.253 556.68,182.253 560.5,179.5C 563.093,178.246 565.427,176.58 567.5,174.5C 573.121,162.262 578.454,149.928 583.5,137.5C 587.011,131.139 590.011,124.472 592.5,117.5C 594.5,113.5 596.5,109.5 598.5,105.5 Z M 590.5,137.5 C 590.116,140.769 588.782,143.603 586.5,146C 588.107,145.981 589.774,145.815 591.5,145.5C 591.806,142.615 591.473,139.948 590.5,137.5 Z"/></g>
<g><path style="opacity:1" fill="#d31a05" d="M 548.5,208.5 C 546.86,209.32 545.193,210.153 543.5,211C 545.171,214.002 546.004,217.169 546,220.5C 539.698,225.801 533.698,231.468 528,237.5C 524.333,244.167 520.667,250.833 517,257.5C 511.656,263.377 506.156,268.377 500.5,272.5C 509.167,252.833 517.833,233.167 526.5,213.5C 520.863,212.337 515.196,212.17 509.5,213C 507.671,217.15 505.837,221.316 504,225.5C 499.37,227.968 494.87,230.634 490.5,233.5C 492.124,234.869 492.624,236.536 492,238.5C 481.407,247.214 470.907,256.048 460.5,265C 455.418,268.448 449.751,269.781 443.5,269C 458.667,251.833 473.833,234.667 489,217.5C 489.685,214.421 490.519,211.421 491.5,208.5C 510.598,207.175 529.598,207.175 548.5,208.5 Z"/></g>
<g><path style="opacity:1" fill="#db2702" d="M 539.5,178.5 C 546.687,178.175 553.687,178.509 560.5,179.5C 556.68,182.253 553.014,185.253 549.5,188.5C 550.757,190.679 552.257,192.679 554,194.5C 561.159,186.933 569.992,184.266 580.5,186.5C 583.5,187.167 586.5,187.833 589.5,188.5C 588.206,190.907 586.539,193.074 584.5,195C 572.438,199.409 560.438,203.909 548.5,208.5C 529.598,207.175 510.598,207.175 491.5,208.5C 493.472,201.562 495.139,194.562 496.5,187.5C 507.505,187.667 518.505,187.5 529.5,187C 532.412,183.581 535.746,180.748 539.5,178.5 Z"/></g>
<g><path style="opacity:1" fill="#ee8f77" d="M 580.5,186.5 C 583.898,186.18 587.232,186.513 590.5,187.5C 590.376,188.107 590.043,188.44 589.5,188.5C 586.5,187.833 583.5,187.167 580.5,186.5 Z"/></g>
<g><path style="opacity:1" fill="#e53d03" d="M 591.5,151.5 C 599.021,152.67 606.521,154.004 614,155.5C 616.324,158.137 618.157,161.137 619.5,164.5C 605.307,168.504 590.974,171.671 576.5,174C 581.386,166.385 586.386,158.885 591.5,151.5 Z"/></g>
<g><path style="opacity:1" fill="#ede4e3" d="M 376.5,218.5 C 376.5,218.833 376.5,219.167 376.5,219.5C 360.023,230.242 343.689,241.242 327.5,252.5C 319.671,248.42 312.004,244.087 304.5,239.5C 325.178,230.549 346.011,221.883 367,213.5C 370.415,214.79 373.582,216.456 376.5,218.5 Z"/></g>
<g><path style="opacity:1" fill="#d21906" d="M 364.5,216.5 C 367.564,216.144 370.231,216.977 372.5,219C 357.833,229 343.167,239 328.5,249C 327.5,249.667 326.5,249.667 325.5,249C 320.167,246 314.833,243 309.5,240C 327.893,232.133 346.226,224.299 364.5,216.5 Z"/></g>
<g><path style="opacity:1" fill="#f4c5c2" d="M 380.5,195.5 C 380.169,219.672 380.502,243.672 381.5,267.5C 381.217,268.289 380.717,268.956 380,269.5C 379.17,244.663 379.337,219.997 380.5,195.5 Z"/></g>
</svg>
